%TF.GenerationSoftware,KiCad,Pcbnew,10.0.4*%
%TF.CreationDate,2026-09-17T19:11:30+12:00*%
%TF.ProjectId,MicroDev,4d696372-6f44-4657-962e-6b696361645f,rev?*%
%TF.SameCoordinates,Original*%
%TF.FileFunction,Soldermask,Top*%
%TF.FilePolarity,Negative*%
%FSLAX46Y46*%
G04 Gerber Fmt 4.6, Leading zero omitted, Abs format (unit mm)*
G04 Created by KiCad (PCBNEW 10.0.4) date 2026-09-17 19:11:30*
%MOMM*%
%LPD*%
G01*
G04 APERTURE LIST*
G04 Aperture macros list*
%AMRoundRect*
0 Rectangle with rounded corners*
0 $1 Rounding radius*
0 $2 $3 $4 $5 $6 $7 $8 $9 X,Y pos of 4 corners*
0 Add a 4 corners polygon primitive as box body*
4,1,4,$2,$3,$4,$5,$6,$7,$8,$9,$2,$3,0*
0 Add four circle primitives for the rounded corners*
1,1,$1+$1,$2,$3*
1,1,$1+$1,$4,$5*
1,1,$1+$1,$6,$7*
1,1,$1+$1,$8,$9*
0 Add four rect primitives between the rounded corners*
20,1,$1+$1,$2,$3,$4,$5,0*
20,1,$1+$1,$4,$5,$6,$7,0*
20,1,$1+$1,$6,$7,$8,$9,0*
20,1,$1+$1,$8,$9,$2,$3,0*%
G04 Aperture macros list end*
%ADD10C,0.300000*%
%ADD11RoundRect,0.135000X-0.135000X-0.185000X0.135000X-0.185000X0.135000X0.185000X-0.135000X0.185000X0*%
%ADD12RoundRect,0.140000X-0.140000X-0.170000X0.140000X-0.170000X0.140000X0.170000X-0.140000X0.170000X0*%
%ADD13RoundRect,0.225000X0.225000X0.375000X-0.225000X0.375000X-0.225000X-0.375000X0.225000X-0.375000X0*%
%ADD14RoundRect,0.087500X-0.425000X-0.087500X0.425000X-0.087500X0.425000X0.087500X-0.425000X0.087500X0*%
%ADD15C,0.650000*%
%ADD16RoundRect,0.150000X-0.575000X0.150000X-0.575000X-0.150000X0.575000X-0.150000X0.575000X0.150000X0*%
%ADD17RoundRect,0.075000X-0.650000X0.075000X-0.650000X-0.075000X0.650000X-0.075000X0.650000X0.075000X0*%
%ADD18O,2.100000X1.000000*%
%ADD19O,1.600000X1.000000*%
%ADD20RoundRect,0.218750X-0.218750X-0.256250X0.218750X-0.256250X0.218750X0.256250X-0.218750X0.256250X0*%
%ADD21RoundRect,0.087500X0.087500X-0.662500X0.087500X0.662500X-0.087500X0.662500X-0.087500X-0.662500X0*%
%ADD22RoundRect,0.135000X0.135000X0.185000X-0.135000X0.185000X-0.135000X-0.185000X0.135000X-0.185000X0*%
%ADD23R,1.700000X1.700000*%
%ADD24C,1.700000*%
G04 APERTURE END LIST*
D10*
G36*
X136203483Y-77550374D02*
G01*
X136299213Y-77564958D01*
X136376594Y-77587103D01*
X136449054Y-77620824D01*
X136512751Y-77665382D01*
X136568661Y-77721375D01*
X136633677Y-77812376D01*
X136685202Y-77914854D01*
X136723226Y-78030409D01*
X136747071Y-78161029D01*
X136755415Y-78309023D01*
X136746989Y-78459122D01*
X136722991Y-78590596D01*
X136684870Y-78705957D01*
X136633402Y-78807372D01*
X136568661Y-78896580D01*
X136506153Y-78957320D01*
X136429479Y-79006043D01*
X136336192Y-79042787D01*
X136223009Y-79066477D01*
X136085976Y-79075000D01*
X135487886Y-79075000D01*
X135487886Y-78811217D01*
X135802684Y-78811217D01*
X136085976Y-78811217D01*
X136178538Y-78801364D01*
X136253659Y-78773684D01*
X136315223Y-78729023D01*
X136365453Y-78665565D01*
X136404580Y-78579097D01*
X136430822Y-78463469D01*
X136440616Y-78311038D01*
X136430805Y-78157870D01*
X136404522Y-78041724D01*
X136365349Y-77954911D01*
X136315088Y-77891239D01*
X136253523Y-77846456D01*
X136178445Y-77818716D01*
X136085976Y-77808845D01*
X135802684Y-77808845D01*
X135802684Y-78811217D01*
X135487886Y-78811217D01*
X135487886Y-77545062D01*
X136085976Y-77545062D01*
X136203483Y-77550374D01*
G37*
G36*
X134379997Y-77883033D02*
G01*
X134132151Y-79075000D01*
X133824222Y-79075000D01*
X134142318Y-77545062D01*
X134602105Y-77545062D01*
X134620149Y-78761666D01*
X135135715Y-77545062D01*
X135599624Y-77545062D01*
X135281528Y-79075000D01*
X134973690Y-79075000D01*
X135221536Y-77883033D01*
X134708900Y-79075000D01*
X134400971Y-79075000D01*
X134379997Y-77883033D01*
G37*
D11*
%TO.C,R5*%
X140700000Y-80470000D03*
X141720000Y-80470000D03*
%TD*%
D12*
%TO.C,C1*%
X140000000Y-86380000D03*
X140960000Y-86380000D03*
%TD*%
%TO.C,C2*%
X135400000Y-80100000D03*
X136360000Y-80100000D03*
%TD*%
D11*
%TO.C,R1*%
X134650000Y-81440000D03*
X135670000Y-81440000D03*
%TD*%
D13*
%TO.C,D1*%
X137807500Y-87120000D03*
X134507500Y-87120000D03*
%TD*%
D14*
%TO.C,U2*%
X141270000Y-81620000D03*
X141270000Y-82270000D03*
X141270000Y-82920000D03*
X142945000Y-82920000D03*
X142945000Y-82270000D03*
X142945000Y-81620000D03*
%TD*%
D15*
%TO.C,J1*%
X130870000Y-79820000D03*
X130870000Y-85600000D03*
D16*
X132315000Y-79460000D03*
X132315000Y-80260000D03*
D17*
X132315000Y-81460000D03*
X132315000Y-82460000D03*
X132315000Y-82960000D03*
X132315000Y-83960000D03*
D16*
X132315000Y-85160000D03*
X132315000Y-85960000D03*
X132315000Y-85960000D03*
X132315000Y-85160000D03*
D17*
X132315000Y-84460000D03*
X132315000Y-83460000D03*
X132315000Y-81960000D03*
X132315000Y-80960000D03*
D16*
X132315000Y-80260000D03*
X132315000Y-79460000D03*
D18*
X131400000Y-78390000D03*
D19*
X127220000Y-78390000D03*
D18*
X131400000Y-87030000D03*
D19*
X127220000Y-87030000D03*
%TD*%
D20*
%TO.C,D2*%
X140642500Y-78620000D03*
X142217500Y-78620000D03*
%TD*%
D21*
%TO.C,U1*%
X137550000Y-84800000D03*
X138050000Y-84800000D03*
X138550000Y-84800000D03*
X139050000Y-84800000D03*
X139550000Y-84800000D03*
X139550000Y-80600000D03*
X139050000Y-80600000D03*
X138550000Y-80600000D03*
X138050000Y-80600000D03*
X137550000Y-80600000D03*
%TD*%
D22*
%TO.C,R4*%
X142960000Y-84190000D03*
X141940000Y-84190000D03*
%TD*%
%TO.C,R3*%
X138870000Y-78910000D03*
X137850000Y-78910000D03*
%TD*%
D11*
%TO.C,R2*%
X134590000Y-84520000D03*
X135610000Y-84520000D03*
%TD*%
D23*
%TO.C,J2*%
X145260000Y-80480000D03*
D24*
X145260000Y-83020000D03*
X145260000Y-85560000D03*
%TD*%
M02*
