%TF.GenerationSoftware,KiCad,Pcbnew,10.0.4*%
%TF.CreationDate,2026-09-12T19:24:58+12:00*%
%TF.ProjectId,MicroDev,4d696372-6f44-4657-962e-6b696361645f,rev?*%
%TF.SameCoordinates,Original*%
%TF.FileFunction,Copper,L1,Top*%
%TF.FilePolarity,Positive*%
%FSLAX46Y46*%
G04 Gerber Fmt 4.6, Leading zero omitted, Abs format (unit mm)*
G04 Created by KiCad (PCBNEW 10.0.4) date 2026-09-12 19:24:58*
%MOMM*%
%LPD*%
G01*
G04 APERTURE LIST*
G04 Aperture macros list*
%AMRoundRect*
0 Rectangle with rounded corners*
0 $1 Rounding radius*
0 $2 $3 $4 $5 $6 $7 $8 $9 X,Y pos of 4 corners*
0 Add a 4 corners polygon primitive as box body*
4,1,4,$2,$3,$4,$5,$6,$7,$8,$9,$2,$3,0*
0 Add four circle primitives for the rounded corners*
1,1,$1+$1,$2,$3*
1,1,$1+$1,$4,$5*
1,1,$1+$1,$6,$7*
1,1,$1+$1,$8,$9*
0 Add four rect primitives between the rounded corners*
20,1,$1+$1,$2,$3,$4,$5,0*
20,1,$1+$1,$4,$5,$6,$7,0*
20,1,$1+$1,$6,$7,$8,$9,0*
20,1,$1+$1,$8,$9,$2,$3,0*%
G04 Aperture macros list end*
%TA.AperFunction,SMDPad,CuDef*%
%ADD10RoundRect,0.087500X-0.425000X-0.087500X0.425000X-0.087500X0.425000X0.087500X-0.425000X0.087500X0*%
%TD*%
%TA.AperFunction,SMDPad,CuDef*%
%ADD11RoundRect,0.087500X0.087500X-0.662500X0.087500X0.662500X-0.087500X0.662500X-0.087500X-0.662500X0*%
%TD*%
%TA.AperFunction,SMDPad,CuDef*%
%ADD12RoundRect,0.135000X0.135000X0.185000X-0.135000X0.185000X-0.135000X-0.185000X0.135000X-0.185000X0*%
%TD*%
%TA.AperFunction,SMDPad,CuDef*%
%ADD13RoundRect,0.135000X-0.135000X-0.185000X0.135000X-0.185000X0.135000X0.185000X-0.135000X0.185000X0*%
%TD*%
%TA.AperFunction,ComponentPad*%
%ADD14R,1.700000X1.700000*%
%TD*%
%TA.AperFunction,ComponentPad*%
%ADD15C,1.700000*%
%TD*%
%TA.AperFunction,SMDPad,CuDef*%
%ADD16RoundRect,0.150000X-0.575000X0.150000X-0.575000X-0.150000X0.575000X-0.150000X0.575000X0.150000X0*%
%TD*%
%TA.AperFunction,SMDPad,CuDef*%
%ADD17RoundRect,0.075000X-0.650000X0.075000X-0.650000X-0.075000X0.650000X-0.075000X0.650000X0.075000X0*%
%TD*%
%TA.AperFunction,ComponentPad*%
%ADD18O,2.100000X1.000000*%
%TD*%
%TA.AperFunction,ComponentPad*%
%ADD19O,1.600000X1.000000*%
%TD*%
%TA.AperFunction,SMDPad,CuDef*%
%ADD20RoundRect,0.218750X-0.218750X-0.256250X0.218750X-0.256250X0.218750X0.256250X-0.218750X0.256250X0*%
%TD*%
%TA.AperFunction,SMDPad,CuDef*%
%ADD21RoundRect,0.140000X-0.140000X-0.170000X0.140000X-0.170000X0.140000X0.170000X-0.140000X0.170000X0*%
%TD*%
%TA.AperFunction,SMDPad,CuDef*%
%ADD22RoundRect,0.147500X0.147500X0.172500X-0.147500X0.172500X-0.147500X-0.172500X0.147500X-0.172500X0*%
%TD*%
%TA.AperFunction,ViaPad*%
%ADD23C,0.600000*%
%TD*%
%TA.AperFunction,Conductor*%
%ADD24C,0.200000*%
%TD*%
G04 APERTURE END LIST*
D10*
%TO.P,U2,1,VIN_1*%
%TO.N,Net-(D1-K)*%
X141270000Y-81620000D03*
%TO.P,U2,2,GND_2*%
%TO.N,GND*%
X141270000Y-82270000D03*
%TO.P,U2,3,~{CE}_3*%
X141270000Y-82920000D03*
%TO.P,U2,4,NC_4*%
%TO.N,unconnected-(U2-NC-Pad4)*%
X142945000Y-82920000D03*
%TO.P,U2,5,ST_5*%
%TO.N,Net-(U2-ST)*%
X142945000Y-82270000D03*
%TO.P,U2,6,VOUT_6*%
%TO.N,Net-(J2-Pin_1)*%
X142945000Y-81620000D03*
%TD*%
D11*
%TO.P,U1,1,UD+_1*%
%TO.N,Net-(U1-UD+)*%
X137550000Y-84800000D03*
%TO.P,U1,2,UD-_2*%
%TO.N,Net-(U1-UD-)*%
X138050000Y-84800000D03*
%TO.P,U1,3,GND_3*%
%TO.N,GND*%
X138550000Y-84800000D03*
%TO.P,U1,4,~{RTS}_4*%
%TO.N,unconnected-(U1-~{RTS}-Pad4)*%
X139050000Y-84800000D03*
%TO.P,U1,5,~{CTS}_5*%
%TO.N,unconnected-(U1-~{CTS}-Pad5)*%
X139550000Y-84800000D03*
%TO.P,U1,6,TNOW_6*%
%TO.N,Net-(U1-TNOW)*%
X139550000Y-80600000D03*
%TO.P,U1,7,VCC_7*%
%TO.N,Net-(D1-K)*%
X139050000Y-80600000D03*
%TO.P,U1,8,TXD_8*%
%TO.N,Net-(U1-TXD)*%
X138550000Y-80600000D03*
%TO.P,U1,9,RXD_9*%
%TO.N,Net-(J2-Pin_2)*%
X138050000Y-80600000D03*
%TO.P,U1,10,V3_10*%
%TO.N,Net-(U1-V3)*%
X137550000Y-80600000D03*
%TD*%
D12*
%TO.P,R5,1*%
%TO.N,Net-(U1-TNOW)*%
X138700000Y-87170000D03*
%TO.P,R5,2*%
%TO.N,Net-(D2-A)*%
X137680000Y-87170000D03*
%TD*%
%TO.P,R4,1*%
%TO.N,Net-(J2-Pin_1)*%
X142960000Y-84190000D03*
%TO.P,R4,2*%
%TO.N,Net-(U2-ST)*%
X141940000Y-84190000D03*
%TD*%
%TO.P,R3,1*%
%TO.N,Net-(U1-TXD)*%
X138870000Y-78910000D03*
%TO.P,R3,2*%
%TO.N,Net-(J2-Pin_2)*%
X137850000Y-78910000D03*
%TD*%
D13*
%TO.P,R2,1*%
%TO.N,Net-(J1-CC2)*%
X134590000Y-84520000D03*
%TO.P,R2,2*%
%TO.N,GND*%
X135610000Y-84520000D03*
%TD*%
%TO.P,R1,1*%
%TO.N,Net-(J1-CC1)*%
X134650000Y-81440000D03*
%TO.P,R1,2*%
%TO.N,GND*%
X135670000Y-81440000D03*
%TD*%
D14*
%TO.P,J2,1,Pin_1_1*%
%TO.N,Net-(J2-Pin_1)*%
X145260000Y-80480000D03*
D15*
%TO.P,J2,2,Pin_2_2*%
%TO.N,Net-(J2-Pin_2)*%
X145260000Y-83020000D03*
%TO.P,J2,3,Pin_3_3*%
%TO.N,GND*%
X145260000Y-85560000D03*
%TD*%
D16*
%TO.P,J1,A1,GND_A1*%
%TO.N,GND*%
X132315000Y-79460000D03*
%TO.P,J1,A4,VBUS_A4*%
%TO.N,Net-(D1-A)*%
X132315000Y-80260000D03*
D17*
%TO.P,J1,A5,CC1_A5*%
%TO.N,Net-(J1-CC1)*%
X132315000Y-81460000D03*
%TO.P,J1,A6,D+_A6*%
%TO.N,Net-(U1-UD+)*%
X132315000Y-82460000D03*
%TO.P,J1,A7,D-_A7*%
%TO.N,Net-(U1-UD-)*%
X132315000Y-82960000D03*
%TO.P,J1,A8,SBU1_A8*%
%TO.N,unconnected-(J1-SBU1-PadA8)*%
X132315000Y-83960000D03*
D16*
%TO.P,J1,A9,VBUS_A9*%
%TO.N,Net-(D1-A)*%
X132315000Y-85160000D03*
%TO.P,J1,A12,GND_A12*%
%TO.N,GND*%
X132315000Y-85960000D03*
%TO.P,J1,B1,GND_B1*%
X132315000Y-85960000D03*
%TO.P,J1,B4,VBUS_B4*%
%TO.N,Net-(D1-A)*%
X132315000Y-85160000D03*
D17*
%TO.P,J1,B5,CC2_B5*%
%TO.N,Net-(J1-CC2)*%
X132315000Y-84460000D03*
%TO.P,J1,B6,D+_B6*%
%TO.N,Net-(U1-UD+)*%
X132315000Y-83460000D03*
%TO.P,J1,B7,D-_B7*%
%TO.N,Net-(U1-UD-)*%
X132315000Y-81960000D03*
%TO.P,J1,B8,SBU2_B8*%
%TO.N,unconnected-(J1-SBU2-PadB8)*%
X132315000Y-80960000D03*
D16*
%TO.P,J1,B9,VBUS_B9*%
%TO.N,Net-(D1-A)*%
X132315000Y-80260000D03*
%TO.P,J1,B12,GND_B12*%
%TO.N,GND*%
X132315000Y-79460000D03*
D18*
%TO.P,J1,SH,SHIELD_SH*%
X131400000Y-78390000D03*
D19*
X127220000Y-78390000D03*
D18*
X131400000Y-87030000D03*
D19*
X127220000Y-87030000D03*
%TD*%
D20*
%TO.P,D2,1,K_1*%
%TO.N,GND*%
X134715000Y-87160000D03*
%TO.P,D2,2,A_2*%
%TO.N,Net-(D2-A)*%
X136290000Y-87160000D03*
%TD*%
D21*
%TO.P,C2,1*%
%TO.N,GND*%
X135400000Y-80100000D03*
%TO.P,C2,2*%
%TO.N,Net-(U1-V3)*%
X136360000Y-80100000D03*
%TD*%
%TO.P,C1,1*%
%TO.N,Net-(D1-K)*%
X140000000Y-86380000D03*
%TO.P,C1,2*%
%TO.N,GND*%
X140960000Y-86380000D03*
%TD*%
D22*
%TO.P,D1,1,K_1*%
%TO.N,Net-(D1-K)*%
X135275000Y-85730000D03*
%TO.P,D1,2,A_2*%
%TO.N,Net-(D1-A)*%
X134305000Y-85730000D03*
%TD*%
D23*
%TO.N,GND*%
X142120000Y-85520000D03*
X136410000Y-85040000D03*
%TO.N,Net-(U1-TNOW)*%
X140330000Y-80350000D03*
X139750000Y-87250000D03*
%TD*%
%TO.N,GND*%
D24*
X141270000Y-84670000D02*
X142120000Y-85520000D01*
X141270000Y-82920000D02*
X141270000Y-84670000D01*
%TO.N,Net-(J2-Pin_2)*%
X144110000Y-79330000D02*
X146410000Y-79330000D01*
X146410000Y-79330000D02*
X146410000Y-81630000D01*
X144110000Y-80080000D02*
X144110000Y-79330000D01*
X142320000Y-80080000D02*
X144110000Y-80080000D01*
X141670000Y-79910000D02*
X142150000Y-79910000D01*
X142150000Y-79910000D02*
X142320000Y-80080000D01*
X140295686Y-78510000D02*
X141670000Y-79884315D01*
X141670000Y-79884315D02*
X141670000Y-79910000D01*
X139773883Y-78510000D02*
X140295686Y-78510000D01*
X139746941Y-78536941D02*
X139773883Y-78510000D01*
X139500000Y-78290000D02*
X139746941Y-78536941D01*
X138470000Y-78290000D02*
X139500000Y-78290000D01*
X137850000Y-78910000D02*
X138470000Y-78290000D01*
X146410000Y-81630000D02*
X144675686Y-81630000D01*
X144675686Y-81630000D02*
X144510000Y-81795686D01*
X144510000Y-81795686D02*
X144510000Y-82270000D01*
X144510000Y-82270000D02*
X145260000Y-83020000D01*
%TO.N,Net-(U2-ST)*%
X141940000Y-84190000D02*
X142082500Y-84047500D01*
X142082500Y-84047500D02*
X142082500Y-82369568D01*
X142082500Y-82369568D02*
X142182068Y-82270000D01*
X142182068Y-82270000D02*
X142945000Y-82270000D01*
%TO.N,Net-(J2-Pin_1)*%
X145260000Y-80480000D02*
X144110000Y-81630000D01*
X144110000Y-81630000D02*
X144110000Y-83040000D01*
X144110000Y-83040000D02*
X142960000Y-84190000D01*
X145260000Y-80480000D02*
X144085000Y-80480000D01*
X144085000Y-80480000D02*
X142945000Y-81620000D01*
%TO.N,Net-(D1-K)*%
X140000000Y-86380000D02*
X140457500Y-85922500D01*
X140457500Y-85922500D02*
X140457500Y-81920001D01*
X140457500Y-81920001D02*
X140757501Y-81620000D01*
X140757501Y-81620000D02*
X141270000Y-81620000D01*
%TO.N,GND*%
X135890000Y-84520000D02*
X136410000Y-85040000D01*
X135610000Y-84520000D02*
X135890000Y-84520000D01*
%TO.N,Net-(J1-CC2)*%
X132315000Y-84460000D02*
X134530000Y-84460000D01*
X134530000Y-84460000D02*
X134590000Y-84520000D01*
%TO.N,Net-(U1-UD+)*%
X132315000Y-82460000D02*
X131557590Y-82460000D01*
X131557590Y-82460000D02*
X131290000Y-82727590D01*
X131290000Y-82727590D02*
X131290000Y-83210000D01*
X131290000Y-83210000D02*
X131540000Y-83460000D01*
X131540000Y-83460000D02*
X132315000Y-83460000D01*
%TO.N,Net-(D1-A)*%
X132315000Y-80260000D02*
X131757590Y-80260000D01*
X131510000Y-85160000D02*
X132315000Y-85160000D01*
X131757590Y-80260000D02*
X130280000Y-81737590D01*
X130280000Y-81737590D02*
X130280000Y-83930000D01*
X130280000Y-83930000D02*
X131510000Y-85160000D01*
%TO.N,Net-(U1-UD+)*%
X137550000Y-84800000D02*
X136210000Y-83460000D01*
X136210000Y-83460000D02*
X132315000Y-83460000D01*
%TO.N,Net-(U1-UD-)*%
X133342410Y-82690000D02*
X137510000Y-82690000D01*
X137510000Y-82690000D02*
X138050000Y-83230000D01*
X133340000Y-82692410D02*
X133342410Y-82690000D01*
X138050000Y-83230000D02*
X138050000Y-84800000D01*
X132315000Y-81960000D02*
X133072410Y-81960000D01*
X133340000Y-82692410D02*
X133072410Y-82960000D01*
X133072410Y-81960000D02*
X133340000Y-82227590D01*
X133340000Y-82227590D02*
X133340000Y-82692410D01*
X133072410Y-82960000D02*
X132315000Y-82960000D01*
%TO.N,GND*%
X141270000Y-82270000D02*
X141270000Y-82920000D01*
%TO.N,Net-(D1-K)*%
X140130000Y-78910000D02*
X141270000Y-80050000D01*
X141270000Y-80050000D02*
X141270000Y-81620000D01*
%TO.N,Net-(U1-V3)*%
X137550000Y-80600000D02*
X136860000Y-80600000D01*
X136860000Y-80600000D02*
X136360000Y-80100000D01*
%TO.N,Net-(D1-K)*%
X140000000Y-86380000D02*
X135925000Y-86380000D01*
X135925000Y-86380000D02*
X135275000Y-85730000D01*
X135275000Y-85730000D02*
X135338924Y-85730000D01*
X139050000Y-80600000D02*
X139050000Y-79799568D01*
X139050000Y-79799568D02*
X139939568Y-78910000D01*
X139939568Y-78910000D02*
X140130000Y-78910000D01*
%TO.N,Net-(U1-TXD)*%
X138870000Y-78910000D02*
X138550000Y-79230000D01*
X138550000Y-79230000D02*
X138550000Y-80600000D01*
%TO.N,Net-(J2-Pin_2)*%
X137850000Y-78910000D02*
X138050000Y-79110000D01*
X138050000Y-79110000D02*
X138050000Y-80600000D01*
%TO.N,Net-(U1-TNOW)*%
X138700000Y-87170000D02*
X139670000Y-87170000D01*
X140330000Y-80350000D02*
X139800000Y-80350000D01*
X139670000Y-87170000D02*
X139750000Y-87250000D01*
X139800000Y-80350000D02*
X139550000Y-80600000D01*
%TO.N,Net-(D2-A)*%
X136290000Y-87160000D02*
X137670000Y-87160000D01*
X137670000Y-87160000D02*
X137680000Y-87170000D01*
%TO.N,Net-(J1-CC1)*%
X134650000Y-81440000D02*
X132335000Y-81440000D01*
X132335000Y-81440000D02*
X132315000Y-81460000D01*
%TO.N,GND*%
X135670000Y-81440000D02*
X133690000Y-79460000D01*
X133690000Y-79460000D02*
X132315000Y-79460000D01*
X127220000Y-78390000D02*
X131245000Y-78390000D01*
X131245000Y-78390000D02*
X132315000Y-79460000D01*
X127220000Y-87030000D02*
X131400000Y-87030000D01*
X131400000Y-87030000D02*
X134585000Y-87030000D01*
X134585000Y-87030000D02*
X134715000Y-87160000D01*
X132315000Y-85960000D02*
X132320000Y-85960000D01*
X132320000Y-85960000D02*
X133520000Y-87160000D01*
X133520000Y-87160000D02*
X134715000Y-87160000D01*
%TO.N,Net-(D1-A)*%
X132315000Y-85160000D02*
X133735000Y-85160000D01*
X133735000Y-85160000D02*
X134305000Y-85730000D01*
%TD*%
%TA.AperFunction,Conductor*%
%TO.N,GND*%
G36*
X130043919Y-77570185D02*
G01*
X130089674Y-77622989D01*
X130099618Y-77692147D01*
X130075558Y-77746753D01*
X130076633Y-77747472D01*
X129963814Y-77916315D01*
X129963807Y-77916328D01*
X129888430Y-78098307D01*
X129888430Y-78098309D01*
X129880138Y-78140000D01*
X130683012Y-78140000D01*
X130665795Y-78149940D01*
X130609940Y-78205795D01*
X130570444Y-78274204D01*
X130550000Y-78350504D01*
X130550000Y-78429496D01*
X130570444Y-78505796D01*
X130609940Y-78574205D01*
X130665795Y-78630060D01*
X130683012Y-78640000D01*
X129880138Y-78640000D01*
X129888430Y-78681690D01*
X129888430Y-78681692D01*
X129963807Y-78863671D01*
X129963814Y-78863684D01*
X130073248Y-79027462D01*
X130073251Y-79027466D01*
X130212533Y-79166748D01*
X130212537Y-79166751D01*
X130381387Y-79279574D01*
X130380430Y-79281005D01*
X130424425Y-79324211D01*
X130439895Y-79392346D01*
X130416072Y-79458029D01*
X130414309Y-79460094D01*
X130414432Y-79460189D01*
X130409485Y-79466635D01*
X130333719Y-79597863D01*
X130294500Y-79744234D01*
X130294500Y-79895765D01*
X130333719Y-80042136D01*
X130371602Y-80107750D01*
X130409485Y-80173365D01*
X130516635Y-80280515D01*
X130612019Y-80335585D01*
X130660235Y-80386152D01*
X130673458Y-80454759D01*
X130647490Y-80519624D01*
X130637700Y-80530653D01*
X129911286Y-81257068D01*
X129799481Y-81368872D01*
X129799475Y-81368880D01*
X129757232Y-81442049D01*
X129757232Y-81442050D01*
X129720423Y-81505804D01*
X129720423Y-81505805D01*
X129679499Y-81658533D01*
X129679499Y-81658535D01*
X129679499Y-81826636D01*
X129679500Y-81826649D01*
X129679500Y-83843330D01*
X129679499Y-83843348D01*
X129679499Y-84009054D01*
X129679498Y-84009054D01*
X129679499Y-84009057D01*
X129720423Y-84161785D01*
X129733963Y-84185236D01*
X129761202Y-84232415D01*
X129799479Y-84298715D01*
X129918349Y-84417585D01*
X129918355Y-84417590D01*
X130490761Y-84989996D01*
X130524246Y-85051319D01*
X130519262Y-85121011D01*
X130490762Y-85165358D01*
X130409485Y-85246635D01*
X130333719Y-85377863D01*
X130294500Y-85524234D01*
X130294500Y-85675765D01*
X130333719Y-85822136D01*
X130353623Y-85856610D01*
X130409485Y-85953365D01*
X130409488Y-85953368D01*
X130414432Y-85959811D01*
X130411612Y-85961974D01*
X130437302Y-86009020D01*
X130432318Y-86078712D01*
X130390446Y-86134645D01*
X130381379Y-86140416D01*
X130381387Y-86140427D01*
X130212536Y-86253248D01*
X130073251Y-86392533D01*
X130073248Y-86392537D01*
X129963814Y-86556315D01*
X129963807Y-86556328D01*
X129888430Y-86738307D01*
X129888430Y-86738309D01*
X129880138Y-86780000D01*
X130683012Y-86780000D01*
X130665795Y-86789940D01*
X130609940Y-86845795D01*
X130570444Y-86914204D01*
X130550000Y-86990504D01*
X130550000Y-87069496D01*
X130570444Y-87145796D01*
X130609940Y-87214205D01*
X130665795Y-87270060D01*
X130683012Y-87280000D01*
X129880138Y-87280000D01*
X129888430Y-87321690D01*
X129888430Y-87321692D01*
X129963807Y-87503671D01*
X129963814Y-87503684D01*
X130073248Y-87667462D01*
X130073251Y-87667466D01*
X130193604Y-87787819D01*
X130227089Y-87849142D01*
X130222105Y-87918834D01*
X130180233Y-87974767D01*
X130114769Y-87999184D01*
X130105923Y-87999500D01*
X128264077Y-87999500D01*
X128197038Y-87979815D01*
X128151283Y-87927011D01*
X128141339Y-87857853D01*
X128170364Y-87794297D01*
X128176396Y-87787819D01*
X128296748Y-87667466D01*
X128296751Y-87667462D01*
X128406185Y-87503684D01*
X128406192Y-87503671D01*
X128481569Y-87321692D01*
X128481569Y-87321690D01*
X128489862Y-87280000D01*
X127686988Y-87280000D01*
X127704205Y-87270060D01*
X127760060Y-87214205D01*
X127799556Y-87145796D01*
X127820000Y-87069496D01*
X127820000Y-86990504D01*
X127799556Y-86914204D01*
X127760060Y-86845795D01*
X127704205Y-86789940D01*
X127686988Y-86780000D01*
X128489862Y-86780000D01*
X128481569Y-86738309D01*
X128481569Y-86738307D01*
X128406192Y-86556328D01*
X128406185Y-86556315D01*
X128296751Y-86392537D01*
X128296748Y-86392533D01*
X128157466Y-86253251D01*
X128157462Y-86253248D01*
X127993684Y-86143814D01*
X127993671Y-86143807D01*
X127811693Y-86068430D01*
X127811681Y-86068427D01*
X127618495Y-86030000D01*
X127470000Y-86030000D01*
X127470000Y-86730000D01*
X126970000Y-86730000D01*
X126970000Y-86030000D01*
X126821504Y-86030000D01*
X126628318Y-86068427D01*
X126628306Y-86068430D01*
X126446328Y-86143807D01*
X126446315Y-86143814D01*
X126343391Y-86212587D01*
X126276714Y-86233465D01*
X126209333Y-86214981D01*
X126162643Y-86163002D01*
X126150500Y-86109485D01*
X126150500Y-79310514D01*
X126170185Y-79243475D01*
X126222989Y-79197720D01*
X126292147Y-79187776D01*
X126343392Y-79207412D01*
X126446321Y-79276188D01*
X126446328Y-79276192D01*
X126628306Y-79351569D01*
X126628318Y-79351572D01*
X126821504Y-79389999D01*
X126821508Y-79390000D01*
X126970000Y-79390000D01*
X126970000Y-78690000D01*
X127470000Y-78690000D01*
X127470000Y-79390000D01*
X127618492Y-79390000D01*
X127618495Y-79389999D01*
X127811681Y-79351572D01*
X127811693Y-79351569D01*
X127993671Y-79276192D01*
X127993684Y-79276185D01*
X128157462Y-79166751D01*
X128157466Y-79166748D01*
X128296748Y-79027466D01*
X128296751Y-79027462D01*
X128406185Y-78863684D01*
X128406192Y-78863671D01*
X128481569Y-78681692D01*
X128481569Y-78681690D01*
X128489862Y-78640000D01*
X127686988Y-78640000D01*
X127704205Y-78630060D01*
X127760060Y-78574205D01*
X127799556Y-78505796D01*
X127820000Y-78429496D01*
X127820000Y-78350504D01*
X127799556Y-78274204D01*
X127760060Y-78205795D01*
X127704205Y-78149940D01*
X127686988Y-78140000D01*
X128489862Y-78140000D01*
X128481569Y-78098309D01*
X128481569Y-78098307D01*
X128406192Y-77916328D01*
X128406185Y-77916315D01*
X128293367Y-77747472D01*
X128294521Y-77746700D01*
X128269953Y-77688851D01*
X128281747Y-77619984D01*
X128328900Y-77568425D01*
X128393120Y-77550500D01*
X129976880Y-77550500D01*
X130043919Y-77570185D01*
G37*
%TD.AperFunction*%
%TA.AperFunction,Conductor*%
G36*
X133628621Y-86318389D02*
G01*
X133647998Y-86321004D01*
X133667531Y-86334440D01*
X133675136Y-86337578D01*
X133677854Y-86339826D01*
X133681636Y-86343046D01*
X133757180Y-86418590D01*
X133800349Y-86444119D01*
X133808451Y-86451018D01*
X133821999Y-86471702D01*
X133838869Y-86489770D01*
X133840805Y-86500414D01*
X133846734Y-86509466D01*
X133846948Y-86534188D01*
X133851373Y-86558511D01*
X133847287Y-86573218D01*
X133847341Y-86579333D01*
X133844210Y-86584298D01*
X133842359Y-86590963D01*
X133842679Y-86591070D01*
X133840519Y-86597585D01*
X133840454Y-86597823D01*
X133840409Y-86597917D01*
X133787557Y-86757416D01*
X133777500Y-86855849D01*
X133777500Y-86910000D01*
X134591000Y-86910000D01*
X134658039Y-86929685D01*
X134703794Y-86982489D01*
X134715000Y-87034000D01*
X134715000Y-87286000D01*
X134695315Y-87353039D01*
X134642511Y-87398794D01*
X134591000Y-87410000D01*
X133777501Y-87410000D01*
X133777501Y-87464152D01*
X133787556Y-87562583D01*
X133840406Y-87722072D01*
X133840411Y-87722083D01*
X133894888Y-87810403D01*
X133913329Y-87877795D01*
X133892407Y-87944459D01*
X133838765Y-87989229D01*
X133789350Y-87999500D01*
X132694077Y-87999500D01*
X132627038Y-87979815D01*
X132581283Y-87927011D01*
X132571339Y-87857853D01*
X132600364Y-87794297D01*
X132606396Y-87787819D01*
X132726748Y-87667466D01*
X132726751Y-87667462D01*
X132836185Y-87503684D01*
X132836192Y-87503671D01*
X132911569Y-87321692D01*
X132911569Y-87321690D01*
X132919862Y-87280000D01*
X132116988Y-87280000D01*
X132134205Y-87270060D01*
X132190060Y-87214205D01*
X132229556Y-87145796D01*
X132250000Y-87069496D01*
X132250000Y-86990504D01*
X132229556Y-86914204D01*
X132190060Y-86845795D01*
X132134205Y-86789940D01*
X132116988Y-86780000D01*
X132934389Y-86780000D01*
X132959190Y-86763106D01*
X132987574Y-86757487D01*
X132992488Y-86757100D01*
X132992495Y-86757099D01*
X133150193Y-86711283D01*
X133150196Y-86711282D01*
X133291552Y-86627685D01*
X133291561Y-86627678D01*
X133407678Y-86511561D01*
X133407684Y-86511553D01*
X133490736Y-86371120D01*
X133505026Y-86357777D01*
X133515454Y-86341237D01*
X133530039Y-86334422D01*
X133541805Y-86323437D01*
X133561040Y-86319938D01*
X133578756Y-86311661D01*
X133594709Y-86313813D01*
X133610546Y-86310933D01*
X133628621Y-86318389D01*
G37*
%TD.AperFunction*%
%TA.AperFunction,Conductor*%
G36*
X144208003Y-83893745D02*
G01*
X144252350Y-83922246D01*
X144380213Y-84050109D01*
X144552179Y-84175048D01*
X144552181Y-84175049D01*
X144552184Y-84175051D01*
X144561493Y-84179794D01*
X144612290Y-84227766D01*
X144629087Y-84295587D01*
X144606552Y-84361722D01*
X144561505Y-84400760D01*
X144552446Y-84405376D01*
X144552440Y-84405380D01*
X144498282Y-84444727D01*
X144498282Y-84444728D01*
X145130591Y-85077037D01*
X145067007Y-85094075D01*
X144952993Y-85159901D01*
X144859901Y-85252993D01*
X144794075Y-85367007D01*
X144777037Y-85430591D01*
X144144728Y-84798282D01*
X144144727Y-84798282D01*
X144105380Y-84852439D01*
X144008904Y-85041782D01*
X143943242Y-85243869D01*
X143943242Y-85243872D01*
X143910000Y-85453753D01*
X143910000Y-85666246D01*
X143943242Y-85876127D01*
X143943242Y-85876130D01*
X144008904Y-86078217D01*
X144105375Y-86267550D01*
X144144728Y-86321716D01*
X144777037Y-85689408D01*
X144794075Y-85752993D01*
X144859901Y-85867007D01*
X144952993Y-85960099D01*
X145067007Y-86025925D01*
X145130590Y-86042962D01*
X144498282Y-86675269D01*
X144498282Y-86675270D01*
X144552449Y-86714624D01*
X144741782Y-86811095D01*
X144943870Y-86876757D01*
X145153754Y-86910000D01*
X145366246Y-86910000D01*
X145576127Y-86876757D01*
X145576130Y-86876757D01*
X145778217Y-86811095D01*
X145967554Y-86714622D01*
X146021716Y-86675270D01*
X146021717Y-86675270D01*
X145389408Y-86042962D01*
X145452993Y-86025925D01*
X145567007Y-85960099D01*
X145660099Y-85867007D01*
X145725925Y-85752993D01*
X145742962Y-85689409D01*
X146375270Y-86321717D01*
X146375270Y-86321716D01*
X146414622Y-86267554D01*
X146435015Y-86227532D01*
X146439390Y-86222899D01*
X146441185Y-86216788D01*
X146463081Y-86197814D01*
X146482989Y-86176736D01*
X146489175Y-86175204D01*
X146493989Y-86171033D01*
X146522674Y-86166908D01*
X146550810Y-86159941D01*
X146556840Y-86161995D01*
X146563147Y-86161089D01*
X146589512Y-86173129D01*
X146616945Y-86182478D01*
X146620907Y-86187467D01*
X146626703Y-86190114D01*
X146642372Y-86214496D01*
X146660397Y-86237193D01*
X146661897Y-86244877D01*
X146664477Y-86248892D01*
X146669500Y-86283827D01*
X146669500Y-86495572D01*
X146669184Y-86504419D01*
X146654869Y-86704557D01*
X146652351Y-86722068D01*
X146610645Y-86913790D01*
X146605661Y-86930765D01*
X146537093Y-87114605D01*
X146529743Y-87130699D01*
X146435709Y-87302908D01*
X146426144Y-87317791D01*
X146308561Y-87474864D01*
X146296975Y-87488235D01*
X146158235Y-87626975D01*
X146144864Y-87638561D01*
X145987791Y-87756144D01*
X145972908Y-87765709D01*
X145800699Y-87859743D01*
X145784605Y-87867093D01*
X145600765Y-87935661D01*
X145583790Y-87940645D01*
X145392068Y-87982351D01*
X145374557Y-87984869D01*
X145193779Y-87997799D01*
X145174417Y-87999184D01*
X145165572Y-87999500D01*
X140431941Y-87999500D01*
X140364902Y-87979815D01*
X140319147Y-87927011D01*
X140309203Y-87857853D01*
X140338228Y-87794297D01*
X140344260Y-87787819D01*
X140371786Y-87760292D01*
X140371789Y-87760289D01*
X140459394Y-87629179D01*
X140519737Y-87483497D01*
X140550500Y-87328842D01*
X140550500Y-87303318D01*
X140570185Y-87236279D01*
X140622989Y-87190524D01*
X140692147Y-87180580D01*
X140709094Y-87184241D01*
X140710000Y-87184504D01*
X140710000Y-87184503D01*
X141210000Y-87184503D01*
X141356195Y-87142031D01*
X141495374Y-87059721D01*
X141495383Y-87059714D01*
X141609714Y-86945383D01*
X141609721Y-86945374D01*
X141692031Y-86806195D01*
X141692033Y-86806190D01*
X141737144Y-86650918D01*
X141737145Y-86650912D01*
X141738790Y-86630000D01*
X141210000Y-86630000D01*
X141210000Y-87184503D01*
X140710000Y-87184503D01*
X140710000Y-86878352D01*
X140727267Y-86815233D01*
X140732494Y-86806395D01*
X140748750Y-86750444D01*
X140777642Y-86650997D01*
X140777643Y-86650991D01*
X140780499Y-86614697D01*
X140780500Y-86614690D01*
X140780500Y-86504000D01*
X140800185Y-86436961D01*
X140852989Y-86391206D01*
X140904500Y-86380000D01*
X140960000Y-86380000D01*
X140960000Y-86286370D01*
X140964149Y-86270882D01*
X140963495Y-86257135D01*
X140976613Y-86224370D01*
X140995302Y-86192000D01*
X141045869Y-86143784D01*
X141102689Y-86130000D01*
X141738790Y-86130000D01*
X141737145Y-86109089D01*
X141692031Y-85953804D01*
X141609721Y-85814625D01*
X141609714Y-85814616D01*
X141495383Y-85700285D01*
X141495374Y-85700278D01*
X141356196Y-85617969D01*
X141200909Y-85572854D01*
X141196392Y-85572499D01*
X141172269Y-85570600D01*
X141106981Y-85545715D01*
X141065511Y-85489483D01*
X141058000Y-85446982D01*
X141058000Y-84813585D01*
X141077685Y-84746546D01*
X141130489Y-84700791D01*
X141199647Y-84690847D01*
X141263203Y-84719872D01*
X141288733Y-84750465D01*
X141298864Y-84767597D01*
X141298869Y-84767603D01*
X141412396Y-84881130D01*
X141412400Y-84881133D01*
X141412402Y-84881135D01*
X141550607Y-84962869D01*
X141550614Y-84962871D01*
X141704791Y-85007664D01*
X141704794Y-85007664D01*
X141704796Y-85007665D01*
X141740819Y-85010500D01*
X142139180Y-85010499D01*
X142175204Y-85007665D01*
X142329393Y-84962869D01*
X142386882Y-84928869D01*
X142454602Y-84911688D01*
X142513117Y-84928869D01*
X142570607Y-84962869D01*
X142570610Y-84962869D01*
X142570612Y-84962871D01*
X142724791Y-85007664D01*
X142724794Y-85007664D01*
X142724796Y-85007665D01*
X142760819Y-85010500D01*
X143159180Y-85010499D01*
X143195204Y-85007665D01*
X143349393Y-84962869D01*
X143487598Y-84881135D01*
X143601135Y-84767598D01*
X143682869Y-84629393D01*
X143727665Y-84475204D01*
X143730500Y-84439181D01*
X143730499Y-84320095D01*
X143750183Y-84253057D01*
X143766813Y-84232420D01*
X144076988Y-83922246D01*
X144138311Y-83888761D01*
X144208003Y-83893745D01*
G37*
%TD.AperFunction*%
%TA.AperFunction,Conductor*%
G36*
X136591345Y-84690580D02*
G01*
X136838181Y-84937416D01*
X136871666Y-84998739D01*
X136874500Y-85025097D01*
X136874500Y-85501047D01*
X136889634Y-85615995D01*
X136891621Y-85623409D01*
X136889956Y-85693259D01*
X136850792Y-85751121D01*
X136786563Y-85778623D01*
X136771845Y-85779500D01*
X136225097Y-85779500D01*
X136195656Y-85770855D01*
X136165670Y-85764332D01*
X136160654Y-85760577D01*
X136158058Y-85759815D01*
X136137416Y-85743181D01*
X136106819Y-85712584D01*
X136073334Y-85651261D01*
X136070500Y-85624903D01*
X136070500Y-85492067D01*
X136070499Y-85492052D01*
X136067609Y-85455326D01*
X136067608Y-85455323D01*
X136045104Y-85377865D01*
X136044019Y-85374129D01*
X136044218Y-85304262D01*
X136082159Y-85245591D01*
X136099976Y-85232802D01*
X136137285Y-85210738D01*
X136137294Y-85210731D01*
X136250731Y-85097294D01*
X136250738Y-85097285D01*
X136332406Y-84959191D01*
X136332407Y-84959188D01*
X136377166Y-84805129D01*
X136377167Y-84805122D01*
X136380046Y-84768535D01*
X136404928Y-84703246D01*
X136461158Y-84661774D01*
X136530884Y-84657285D01*
X136591345Y-84690580D01*
G37*
%TD.AperFunction*%
%TA.AperFunction,Conductor*%
G36*
X146616945Y-83643580D02*
G01*
X146660397Y-83698295D01*
X146669500Y-83744929D01*
X146669500Y-84836172D01*
X146649815Y-84903211D01*
X146597011Y-84948966D01*
X146527853Y-84958910D01*
X146464297Y-84929885D01*
X146435016Y-84892468D01*
X146414626Y-84852452D01*
X146375270Y-84798282D01*
X146375269Y-84798282D01*
X145742962Y-85430590D01*
X145725925Y-85367007D01*
X145660099Y-85252993D01*
X145567007Y-85159901D01*
X145452993Y-85094075D01*
X145389409Y-85077037D01*
X146021716Y-84444728D01*
X145967547Y-84405373D01*
X145967547Y-84405372D01*
X145958500Y-84400763D01*
X145907706Y-84352788D01*
X145890912Y-84284966D01*
X145913451Y-84218832D01*
X145958508Y-84179793D01*
X145967816Y-84175051D01*
X146097808Y-84080607D01*
X146139786Y-84050109D01*
X146139788Y-84050106D01*
X146139792Y-84050104D01*
X146290104Y-83899792D01*
X146290106Y-83899788D01*
X146290109Y-83899786D01*
X146415048Y-83727820D01*
X146415047Y-83727820D01*
X146415051Y-83727816D01*
X146435015Y-83688633D01*
X146482989Y-83637838D01*
X146550810Y-83621043D01*
X146616945Y-83643580D01*
G37*
%TD.AperFunction*%
%TA.AperFunction,Conductor*%
G36*
X136585117Y-81138025D02*
G01*
X136597937Y-81142095D01*
X136628216Y-81159577D01*
X136780943Y-81200501D01*
X136781875Y-81200501D01*
X136789603Y-81202955D01*
X136816320Y-81220962D01*
X136843830Y-81237731D01*
X136845110Y-81240366D01*
X136847541Y-81242005D01*
X136862008Y-81275153D01*
X136874359Y-81300578D01*
X136874089Y-81302833D01*
X136875015Y-81304954D01*
X136889635Y-81415997D01*
X136889636Y-81416002D01*
X136948882Y-81559036D01*
X136948883Y-81559037D01*
X137043133Y-81681867D01*
X137165963Y-81776117D01*
X137165962Y-81776117D01*
X137233078Y-81803917D01*
X137309001Y-81835365D01*
X137363659Y-81842561D01*
X137427555Y-81870828D01*
X137466026Y-81929153D01*
X137466857Y-81999017D01*
X137429785Y-82058241D01*
X137366579Y-82088019D01*
X137347473Y-82089500D01*
X136485426Y-82089500D01*
X136418387Y-82069815D01*
X136372632Y-82017011D01*
X136362688Y-81947853D01*
X136378693Y-81902380D01*
X136392407Y-81879189D01*
X136392407Y-81879188D01*
X136437166Y-81725128D01*
X136437167Y-81725122D01*
X136439931Y-81690000D01*
X135794000Y-81690000D01*
X135726961Y-81670315D01*
X135681206Y-81617511D01*
X135670000Y-81566000D01*
X135670000Y-81314000D01*
X135689685Y-81246961D01*
X135742489Y-81201206D01*
X135794000Y-81190000D01*
X136439930Y-81190000D01*
X136456534Y-81172038D01*
X136471299Y-81163205D01*
X136482847Y-81150454D01*
X136500660Y-81145643D01*
X136516496Y-81136172D01*
X136533691Y-81136724D01*
X136550300Y-81132240D01*
X136585117Y-81138025D01*
G37*
%TD.AperFunction*%
%TA.AperFunction,Conductor*%
G36*
X138154115Y-77570185D02*
G01*
X138199870Y-77622989D01*
X138209814Y-77692147D01*
X138180789Y-77755703D01*
X138167860Y-77768574D01*
X138159086Y-77776107D01*
X138101284Y-77809480D01*
X137989480Y-77921284D01*
X137989478Y-77921286D01*
X137986155Y-77924609D01*
X137857582Y-78053182D01*
X137796259Y-78086666D01*
X137769902Y-78089500D01*
X137650831Y-78089500D01*
X137650807Y-78089501D01*
X137614794Y-78092335D01*
X137460611Y-78137129D01*
X137460606Y-78137131D01*
X137322404Y-78218863D01*
X137322396Y-78218869D01*
X137208869Y-78332396D01*
X137208863Y-78332404D01*
X137127131Y-78470606D01*
X137127129Y-78470611D01*
X137082335Y-78624791D01*
X137082334Y-78624797D01*
X137079500Y-78660811D01*
X137079500Y-79159169D01*
X137079501Y-79159191D01*
X137082334Y-79195200D01*
X137082334Y-79195203D01*
X137082335Y-79195204D01*
X137116033Y-79311196D01*
X137115834Y-79381065D01*
X137077892Y-79439735D01*
X137014253Y-79468578D01*
X136945123Y-79458437D01*
X136909276Y-79433471D01*
X136895692Y-79419887D01*
X136895684Y-79419881D01*
X136776495Y-79349393D01*
X136756395Y-79337506D01*
X136756394Y-79337505D01*
X136756393Y-79337505D01*
X136756390Y-79337504D01*
X136600997Y-79292357D01*
X136600991Y-79292356D01*
X136564697Y-79289500D01*
X136564690Y-79289500D01*
X136155310Y-79289500D01*
X136155302Y-79289500D01*
X136119008Y-79292356D01*
X136119002Y-79292357D01*
X135963609Y-79337504D01*
X135963604Y-79337506D01*
X135942628Y-79349911D01*
X135874903Y-79367092D01*
X135816389Y-79349911D01*
X135796191Y-79337966D01*
X135796190Y-79337965D01*
X135650001Y-79295493D01*
X135650000Y-79295494D01*
X135650000Y-79601645D01*
X135632734Y-79664763D01*
X135627507Y-79673600D01*
X135627504Y-79673608D01*
X135582357Y-79829002D01*
X135582356Y-79829008D01*
X135579500Y-79865302D01*
X135579500Y-79976000D01*
X135559815Y-80043039D01*
X135507011Y-80088794D01*
X135455500Y-80100000D01*
X135400000Y-80100000D01*
X135400000Y-80226000D01*
X135380315Y-80293039D01*
X135327511Y-80338794D01*
X135276000Y-80350000D01*
X134621210Y-80350000D01*
X134622854Y-80370910D01*
X134649000Y-80460906D01*
X134648800Y-80530776D01*
X134610857Y-80589445D01*
X134547218Y-80618288D01*
X134529925Y-80619500D01*
X134450830Y-80619500D01*
X134450808Y-80619501D01*
X134414794Y-80622335D01*
X134260611Y-80667129D01*
X134260606Y-80667131D01*
X134122404Y-80748863D01*
X134122400Y-80748866D01*
X134104256Y-80767011D01*
X134068084Y-80803182D01*
X134006764Y-80836666D01*
X133980405Y-80839500D01*
X133648221Y-80839500D01*
X133581182Y-80819815D01*
X133535427Y-80767011D01*
X133531370Y-80756996D01*
X133526990Y-80744662D01*
X133525687Y-80734764D01*
X133510184Y-80697338D01*
X133509119Y-80694338D01*
X133507347Y-80662520D01*
X133503940Y-80630827D01*
X133505268Y-80625170D01*
X133505235Y-80624576D01*
X133505529Y-80624055D01*
X133506888Y-80618267D01*
X133537598Y-80512569D01*
X133540500Y-80475694D01*
X133540500Y-80044306D01*
X133537598Y-80007431D01*
X133504555Y-79893697D01*
X133504555Y-79849999D01*
X134621209Y-79849999D01*
X134621210Y-79850000D01*
X135150000Y-79850000D01*
X135150000Y-79295494D01*
X135149998Y-79295493D01*
X135003809Y-79337965D01*
X135003806Y-79337967D01*
X134864625Y-79420278D01*
X134864616Y-79420285D01*
X134750285Y-79534616D01*
X134750278Y-79534625D01*
X134667968Y-79673804D01*
X134667966Y-79673809D01*
X134622855Y-79829081D01*
X134622854Y-79829087D01*
X134621209Y-79849999D01*
X133504555Y-79849999D01*
X133504555Y-79824507D01*
X133537100Y-79712490D01*
X133537295Y-79710001D01*
X133537295Y-79710000D01*
X133461308Y-79710000D01*
X133394269Y-79690315D01*
X133373631Y-79673685D01*
X133291865Y-79591919D01*
X133150398Y-79508256D01*
X133150397Y-79508255D01*
X133150396Y-79508255D01*
X133150393Y-79508254D01*
X132992573Y-79462402D01*
X132992567Y-79462401D01*
X132955701Y-79459500D01*
X132955694Y-79459500D01*
X132439000Y-79459500D01*
X132430314Y-79456949D01*
X132421353Y-79458238D01*
X132397312Y-79447259D01*
X132371961Y-79439815D01*
X132366033Y-79432974D01*
X132357797Y-79429213D01*
X132343507Y-79406978D01*
X132326206Y-79387011D01*
X132323918Y-79376496D01*
X132320023Y-79370435D01*
X132315000Y-79335500D01*
X132315000Y-79334000D01*
X132334685Y-79266961D01*
X132387489Y-79221206D01*
X132439000Y-79210000D01*
X133537295Y-79210000D01*
X133537295Y-79209998D01*
X133537100Y-79207513D01*
X133491281Y-79049801D01*
X133407685Y-78908447D01*
X133407678Y-78908438D01*
X133291561Y-78792321D01*
X133291552Y-78792314D01*
X133150196Y-78708717D01*
X133150193Y-78708716D01*
X132992495Y-78662900D01*
X132992482Y-78662898D01*
X132987563Y-78662511D01*
X132928509Y-78640000D01*
X132116988Y-78640000D01*
X132134205Y-78630060D01*
X132190060Y-78574205D01*
X132229556Y-78505796D01*
X132250000Y-78429496D01*
X132250000Y-78350504D01*
X132229556Y-78274204D01*
X132190060Y-78205795D01*
X132134205Y-78149940D01*
X132116988Y-78140000D01*
X132919862Y-78140000D01*
X132911569Y-78098309D01*
X132911569Y-78098307D01*
X132836192Y-77916328D01*
X132836185Y-77916315D01*
X132723367Y-77747472D01*
X132724521Y-77746700D01*
X132699953Y-77688851D01*
X132711747Y-77619984D01*
X132758900Y-77568425D01*
X132823120Y-77550500D01*
X138087076Y-77550500D01*
X138154115Y-77570185D01*
G37*
%TD.AperFunction*%
%TD*%
M02*
