%TF.GenerationSoftware,KiCad,Pcbnew,10.0.4*%
%TF.CreationDate,2026-09-17T19:11:30+12:00*%
%TF.ProjectId,MicroDev,4d696372-6f44-4657-962e-6b696361645f,rev?*%
%TF.SameCoordinates,Original*%
%TF.FileFunction,Copper,L2,Bot*%
%TF.FilePolarity,Positive*%
%FSLAX46Y46*%
G04 Gerber Fmt 4.6, Leading zero omitted, Abs format (unit mm)*
G04 Created by KiCad (PCBNEW 10.0.4) date 2026-09-17 19:11:30*
%MOMM*%
%LPD*%
G01*
G04 APERTURE LIST*
%TA.AperFunction,ComponentPad*%
%ADD10O,2.100000X1.000000*%
%TD*%
%TA.AperFunction,ComponentPad*%
%ADD11O,1.600000X1.000000*%
%TD*%
%TA.AperFunction,ComponentPad*%
%ADD12R,1.700000X1.700000*%
%TD*%
%TA.AperFunction,ComponentPad*%
%ADD13C,1.700000*%
%TD*%
%TA.AperFunction,ViaPad*%
%ADD14C,0.600000*%
%TD*%
%TA.AperFunction,Conductor*%
%ADD15C,0.200000*%
%TD*%
G04 APERTURE END LIST*
D10*
%TO.P,J1,SH,SHIELD_SH*%
%TO.N,GND*%
X131400000Y-78390000D03*
D11*
X127220000Y-78390000D03*
D10*
X131400000Y-87030000D03*
D11*
X127220000Y-87030000D03*
%TD*%
D12*
%TO.P,J2,1,Pin_1_1*%
%TO.N,Net-(J2-Pin_1)*%
X145260000Y-80480000D03*
D13*
%TO.P,J2,2,Pin_2_2*%
%TO.N,Net-(J2-Pin_2)*%
X145260000Y-83020000D03*
%TO.P,J2,3,Pin_3_3*%
%TO.N,GND*%
X145260000Y-85560000D03*
%TD*%
D14*
%TO.N,GND*%
X136410000Y-85040000D03*
X142120000Y-85520000D03*
%TO.N,Net-(J2-Pin_2)*%
X137760000Y-78040000D03*
%TD*%
%TO.N,GND*%
D15*
X142120000Y-85520000D02*
X142120000Y-85728529D01*
X139220000Y-87850000D02*
X136410000Y-85040000D01*
X142120000Y-85728529D02*
X139998529Y-87850000D01*
X139998529Y-87850000D02*
X139220000Y-87850000D01*
%TO.N,Net-(J2-Pin_2)*%
X145260000Y-83020000D02*
X142740000Y-83020000D01*
X142740000Y-83020000D02*
X137760000Y-78040000D01*
%TD*%
%TA.AperFunction,Conductor*%
%TO.N,GND*%
G36*
X130043919Y-77570185D02*
G01*
X130089674Y-77622989D01*
X130099618Y-77692147D01*
X130075558Y-77746753D01*
X130076633Y-77747472D01*
X129963814Y-77916315D01*
X129963807Y-77916328D01*
X129888430Y-78098307D01*
X129888430Y-78098309D01*
X129880138Y-78140000D01*
X130683012Y-78140000D01*
X130665795Y-78149940D01*
X130609940Y-78205795D01*
X130570444Y-78274204D01*
X130550000Y-78350504D01*
X130550000Y-78429496D01*
X130570444Y-78505796D01*
X130609940Y-78574205D01*
X130665795Y-78630060D01*
X130683012Y-78640000D01*
X129880138Y-78640000D01*
X129888430Y-78681690D01*
X129888430Y-78681692D01*
X129963807Y-78863671D01*
X129963814Y-78863684D01*
X130073248Y-79027462D01*
X130073251Y-79027466D01*
X130212533Y-79166748D01*
X130212537Y-79166751D01*
X130381387Y-79279574D01*
X130380430Y-79281005D01*
X130424425Y-79324211D01*
X130439895Y-79392346D01*
X130416072Y-79458029D01*
X130414309Y-79460094D01*
X130414432Y-79460189D01*
X130409485Y-79466635D01*
X130333719Y-79597863D01*
X130294500Y-79744234D01*
X130294500Y-79895765D01*
X130333719Y-80042136D01*
X130371602Y-80107750D01*
X130409485Y-80173365D01*
X130516635Y-80280515D01*
X130647865Y-80356281D01*
X130794234Y-80395500D01*
X130794236Y-80395500D01*
X130945764Y-80395500D01*
X130945766Y-80395500D01*
X131092135Y-80356281D01*
X131223365Y-80280515D01*
X131330515Y-80173365D01*
X131406281Y-80042135D01*
X131445500Y-79895766D01*
X131445500Y-79744234D01*
X131406281Y-79597865D01*
X131330515Y-79466635D01*
X131223365Y-79359485D01*
X131211998Y-79352922D01*
X131163783Y-79302354D01*
X131150000Y-79245536D01*
X131150000Y-78690000D01*
X131650000Y-78690000D01*
X131650000Y-79390000D01*
X132048492Y-79390000D01*
X132048495Y-79389999D01*
X132241681Y-79351572D01*
X132241693Y-79351569D01*
X132423671Y-79276192D01*
X132423684Y-79276185D01*
X132587462Y-79166751D01*
X132587466Y-79166748D01*
X132726748Y-79027466D01*
X132726751Y-79027462D01*
X132836185Y-78863684D01*
X132836192Y-78863671D01*
X132911569Y-78681692D01*
X132911569Y-78681690D01*
X132919862Y-78640000D01*
X132116988Y-78640000D01*
X132134205Y-78630060D01*
X132190060Y-78574205D01*
X132229556Y-78505796D01*
X132250000Y-78429496D01*
X132250000Y-78350504D01*
X132229556Y-78274204D01*
X132190060Y-78205795D01*
X132134205Y-78149940D01*
X132116988Y-78140000D01*
X132919862Y-78140000D01*
X132911569Y-78098309D01*
X132911569Y-78098307D01*
X132836192Y-77916328D01*
X132836185Y-77916315D01*
X132723367Y-77747472D01*
X132724521Y-77746700D01*
X132699953Y-77688851D01*
X132711747Y-77619984D01*
X132758900Y-77568425D01*
X132823120Y-77550500D01*
X136910723Y-77550500D01*
X136977762Y-77570185D01*
X137023517Y-77622989D01*
X137033461Y-77692147D01*
X137025284Y-77721952D01*
X136990264Y-77806498D01*
X136990261Y-77806510D01*
X136959500Y-77961153D01*
X136959500Y-78118846D01*
X136990261Y-78273489D01*
X136990264Y-78273501D01*
X137050602Y-78419172D01*
X137050609Y-78419185D01*
X137138210Y-78550288D01*
X137138213Y-78550292D01*
X137249707Y-78661786D01*
X137249711Y-78661789D01*
X137380814Y-78749390D01*
X137380827Y-78749397D01*
X137526498Y-78809735D01*
X137526503Y-78809737D01*
X137591147Y-78822595D01*
X137681849Y-78840638D01*
X137743760Y-78873023D01*
X137745338Y-78874573D01*
X142371284Y-83500520D01*
X142371286Y-83500521D01*
X142371290Y-83500524D01*
X142436915Y-83538412D01*
X142508216Y-83579577D01*
X142660943Y-83620501D01*
X142660945Y-83620501D01*
X142826654Y-83620501D01*
X142826670Y-83620500D01*
X143974281Y-83620500D01*
X144041320Y-83640185D01*
X144084765Y-83688205D01*
X144104947Y-83727814D01*
X144104948Y-83727815D01*
X144229890Y-83899786D01*
X144380213Y-84050109D01*
X144552179Y-84175048D01*
X144552181Y-84175049D01*
X144552184Y-84175051D01*
X144561493Y-84179794D01*
X144612290Y-84227766D01*
X144629087Y-84295587D01*
X144606552Y-84361722D01*
X144561505Y-84400760D01*
X144552446Y-84405376D01*
X144552440Y-84405380D01*
X144498282Y-84444727D01*
X144498282Y-84444728D01*
X145130591Y-85077037D01*
X145067007Y-85094075D01*
X144952993Y-85159901D01*
X144859901Y-85252993D01*
X144794075Y-85367007D01*
X144777037Y-85430591D01*
X144144728Y-84798282D01*
X144144727Y-84798282D01*
X144105380Y-84852439D01*
X144008904Y-85041782D01*
X143943242Y-85243869D01*
X143943242Y-85243872D01*
X143910000Y-85453753D01*
X143910000Y-85666246D01*
X143943242Y-85876127D01*
X143943242Y-85876130D01*
X144008904Y-86078217D01*
X144105375Y-86267550D01*
X144144728Y-86321716D01*
X144777037Y-85689408D01*
X144794075Y-85752993D01*
X144859901Y-85867007D01*
X144952993Y-85960099D01*
X145067007Y-86025925D01*
X145130590Y-86042962D01*
X144498282Y-86675269D01*
X144498282Y-86675270D01*
X144552449Y-86714624D01*
X144741782Y-86811095D01*
X144943870Y-86876757D01*
X145153754Y-86910000D01*
X145366246Y-86910000D01*
X145576127Y-86876757D01*
X145576130Y-86876757D01*
X145778217Y-86811095D01*
X145967554Y-86714622D01*
X146021716Y-86675270D01*
X146021717Y-86675270D01*
X145389408Y-86042962D01*
X145452993Y-86025925D01*
X145567007Y-85960099D01*
X145660099Y-85867007D01*
X145725925Y-85752993D01*
X145742962Y-85689409D01*
X146375270Y-86321717D01*
X146375270Y-86321716D01*
X146414622Y-86267554D01*
X146435015Y-86227532D01*
X146439390Y-86222899D01*
X146441185Y-86216788D01*
X146463081Y-86197814D01*
X146482989Y-86176736D01*
X146489175Y-86175204D01*
X146493989Y-86171033D01*
X146522674Y-86166908D01*
X146550810Y-86159941D01*
X146556840Y-86161995D01*
X146563147Y-86161089D01*
X146589512Y-86173129D01*
X146616945Y-86182478D01*
X146620907Y-86187467D01*
X146626703Y-86190114D01*
X146642372Y-86214496D01*
X146660397Y-86237193D01*
X146661897Y-86244877D01*
X146664477Y-86248892D01*
X146669500Y-86283827D01*
X146669500Y-86495572D01*
X146669184Y-86504419D01*
X146654869Y-86704557D01*
X146652351Y-86722068D01*
X146610645Y-86913790D01*
X146605661Y-86930765D01*
X146537093Y-87114605D01*
X146529743Y-87130699D01*
X146435709Y-87302908D01*
X146426144Y-87317791D01*
X146308561Y-87474864D01*
X146296975Y-87488235D01*
X146158235Y-87626975D01*
X146144864Y-87638561D01*
X145987791Y-87756144D01*
X145972908Y-87765709D01*
X145800699Y-87859743D01*
X145784605Y-87867093D01*
X145600765Y-87935661D01*
X145583790Y-87940645D01*
X145392068Y-87982351D01*
X145374557Y-87984869D01*
X145193779Y-87997799D01*
X145174417Y-87999184D01*
X145165572Y-87999500D01*
X132694077Y-87999500D01*
X132627038Y-87979815D01*
X132581283Y-87927011D01*
X132571339Y-87857853D01*
X132600364Y-87794297D01*
X132606396Y-87787819D01*
X132726748Y-87667466D01*
X132726751Y-87667462D01*
X132836185Y-87503684D01*
X132836192Y-87503671D01*
X132911569Y-87321692D01*
X132911569Y-87321690D01*
X132919862Y-87280000D01*
X132116988Y-87280000D01*
X132134205Y-87270060D01*
X132190060Y-87214205D01*
X132229556Y-87145796D01*
X132250000Y-87069496D01*
X132250000Y-86990504D01*
X132229556Y-86914204D01*
X132190060Y-86845795D01*
X132134205Y-86789940D01*
X132116988Y-86780000D01*
X132919862Y-86780000D01*
X132911569Y-86738309D01*
X132911569Y-86738307D01*
X132885539Y-86675463D01*
X132836192Y-86556328D01*
X132836185Y-86556315D01*
X132726751Y-86392537D01*
X132726748Y-86392533D01*
X132587466Y-86253251D01*
X132587462Y-86253248D01*
X132423684Y-86143814D01*
X132423671Y-86143807D01*
X132241693Y-86068430D01*
X132241681Y-86068427D01*
X132048495Y-86030000D01*
X131650000Y-86030000D01*
X131650000Y-86730000D01*
X131150000Y-86730000D01*
X131150000Y-86174463D01*
X131169685Y-86107424D01*
X131212000Y-86067076D01*
X131223365Y-86060515D01*
X131330515Y-85953365D01*
X131331372Y-85951879D01*
X131351721Y-85916637D01*
X131406279Y-85822138D01*
X131406281Y-85822135D01*
X131445500Y-85675766D01*
X131445500Y-85524234D01*
X131406281Y-85377865D01*
X131330515Y-85246635D01*
X131223365Y-85139485D01*
X131144713Y-85094075D01*
X131092136Y-85063719D01*
X131010264Y-85041782D01*
X130945766Y-85024500D01*
X130794234Y-85024500D01*
X130647863Y-85063719D01*
X130516635Y-85139485D01*
X130516632Y-85139487D01*
X130409487Y-85246632D01*
X130409485Y-85246635D01*
X130333719Y-85377863D01*
X130294500Y-85524234D01*
X130294500Y-85675765D01*
X130333719Y-85822136D01*
X130359626Y-85867007D01*
X130409485Y-85953365D01*
X130409487Y-85953367D01*
X130414432Y-85959811D01*
X130411612Y-85961974D01*
X130437302Y-86009020D01*
X130432318Y-86078712D01*
X130390446Y-86134645D01*
X130381379Y-86140416D01*
X130381387Y-86140427D01*
X130212536Y-86253248D01*
X130073251Y-86392533D01*
X130073248Y-86392537D01*
X129963814Y-86556315D01*
X129963807Y-86556328D01*
X129888430Y-86738307D01*
X129888430Y-86738309D01*
X129880138Y-86780000D01*
X130683012Y-86780000D01*
X130665795Y-86789940D01*
X130609940Y-86845795D01*
X130570444Y-86914204D01*
X130550000Y-86990504D01*
X130550000Y-87069496D01*
X130570444Y-87145796D01*
X130609940Y-87214205D01*
X130665795Y-87270060D01*
X130683012Y-87280000D01*
X129880138Y-87280000D01*
X129888430Y-87321690D01*
X129888430Y-87321692D01*
X129963807Y-87503671D01*
X129963814Y-87503684D01*
X130073248Y-87667462D01*
X130073251Y-87667466D01*
X130193604Y-87787819D01*
X130227089Y-87849142D01*
X130222105Y-87918834D01*
X130180233Y-87974767D01*
X130114769Y-87999184D01*
X130105923Y-87999500D01*
X128264077Y-87999500D01*
X128197038Y-87979815D01*
X128151283Y-87927011D01*
X128141339Y-87857853D01*
X128170364Y-87794297D01*
X128176396Y-87787819D01*
X128296748Y-87667466D01*
X128296751Y-87667462D01*
X128406185Y-87503684D01*
X128406192Y-87503671D01*
X128481569Y-87321692D01*
X128481569Y-87321690D01*
X128489862Y-87280000D01*
X127686988Y-87280000D01*
X127704205Y-87270060D01*
X127760060Y-87214205D01*
X127799556Y-87145796D01*
X127820000Y-87069496D01*
X127820000Y-86990504D01*
X127799556Y-86914204D01*
X127760060Y-86845795D01*
X127704205Y-86789940D01*
X127686988Y-86780000D01*
X128489862Y-86780000D01*
X128481569Y-86738309D01*
X128481569Y-86738307D01*
X128406192Y-86556328D01*
X128406185Y-86556315D01*
X128296751Y-86392537D01*
X128296748Y-86392533D01*
X128157466Y-86253251D01*
X128157462Y-86253248D01*
X127993684Y-86143814D01*
X127993671Y-86143807D01*
X127811693Y-86068430D01*
X127811681Y-86068427D01*
X127618495Y-86030000D01*
X127470000Y-86030000D01*
X127470000Y-86730000D01*
X126970000Y-86730000D01*
X126970000Y-86030000D01*
X126821504Y-86030000D01*
X126628318Y-86068427D01*
X126628306Y-86068430D01*
X126446328Y-86143807D01*
X126446315Y-86143814D01*
X126343391Y-86212587D01*
X126276714Y-86233465D01*
X126209333Y-86214981D01*
X126162643Y-86163002D01*
X126150500Y-86109485D01*
X126150500Y-79707790D01*
X126150505Y-79706692D01*
X126151469Y-79597863D01*
X126154004Y-79311750D01*
X126174280Y-79244891D01*
X126227488Y-79199606D01*
X126296731Y-79190275D01*
X126346889Y-79209750D01*
X126446315Y-79276185D01*
X126446328Y-79276192D01*
X126628306Y-79351569D01*
X126628318Y-79351572D01*
X126821504Y-79389999D01*
X126821508Y-79390000D01*
X126970000Y-79390000D01*
X126970000Y-78690000D01*
X127470000Y-78690000D01*
X127470000Y-79390000D01*
X127618492Y-79390000D01*
X127618495Y-79389999D01*
X127811681Y-79351572D01*
X127811693Y-79351569D01*
X127993671Y-79276192D01*
X127993684Y-79276185D01*
X128157462Y-79166751D01*
X128157466Y-79166748D01*
X128296748Y-79027466D01*
X128296751Y-79027462D01*
X128406185Y-78863684D01*
X128406192Y-78863671D01*
X128481569Y-78681692D01*
X128481569Y-78681690D01*
X128489862Y-78640000D01*
X127686988Y-78640000D01*
X127704205Y-78630060D01*
X127760060Y-78574205D01*
X127799556Y-78505796D01*
X127820000Y-78429496D01*
X127820000Y-78350504D01*
X127799556Y-78274204D01*
X127760060Y-78205795D01*
X127704205Y-78149940D01*
X127686988Y-78140000D01*
X128489862Y-78140000D01*
X128481569Y-78098309D01*
X128481569Y-78098307D01*
X128406192Y-77916328D01*
X128406185Y-77916315D01*
X128293367Y-77747472D01*
X128294521Y-77746700D01*
X128269953Y-77688851D01*
X128281747Y-77619984D01*
X128328900Y-77568425D01*
X128393120Y-77550500D01*
X129976880Y-77550500D01*
X130043919Y-77570185D01*
G37*
%TD.AperFunction*%
%TA.AperFunction,Conductor*%
G36*
X146616945Y-83643580D02*
G01*
X146660397Y-83698295D01*
X146669500Y-83744929D01*
X146669500Y-84836172D01*
X146649815Y-84903211D01*
X146597011Y-84948966D01*
X146527853Y-84958910D01*
X146464297Y-84929885D01*
X146435016Y-84892468D01*
X146414626Y-84852452D01*
X146375270Y-84798282D01*
X146375269Y-84798282D01*
X145742962Y-85430590D01*
X145725925Y-85367007D01*
X145660099Y-85252993D01*
X145567007Y-85159901D01*
X145452993Y-85094075D01*
X145389409Y-85077037D01*
X146021716Y-84444728D01*
X145967547Y-84405373D01*
X145967547Y-84405372D01*
X145958500Y-84400763D01*
X145907706Y-84352788D01*
X145890912Y-84284966D01*
X145913451Y-84218832D01*
X145958508Y-84179793D01*
X145967816Y-84175051D01*
X146047007Y-84117515D01*
X146139786Y-84050109D01*
X146139788Y-84050106D01*
X146139792Y-84050104D01*
X146290104Y-83899792D01*
X146290106Y-83899788D01*
X146290109Y-83899786D01*
X146415048Y-83727820D01*
X146415047Y-83727820D01*
X146415051Y-83727816D01*
X146435015Y-83688633D01*
X146482989Y-83637838D01*
X146550810Y-83621043D01*
X146616945Y-83643580D01*
G37*
%TD.AperFunction*%
%TD*%
M02*
