%TF.GenerationSoftware,KiCad,Pcbnew,10.0.4*%
%TF.CreationDate,2026-09-17T19:11:30+12:00*%
%TF.ProjectId,MicroDev,4d696372-6f44-4657-962e-6b696361645f,rev?*%
%TF.SameCoordinates,Original*%
%TF.FileFunction,Legend,Top*%
%TF.FilePolarity,Positive*%
%FSLAX46Y46*%
G04 Gerber Fmt 4.6, Leading zero omitted, Abs format (unit mm)*
G04 Created by KiCad (PCBNEW 10.0.4) date 2026-09-17 19:11:30*
%MOMM*%
%LPD*%
G01*
G04 APERTURE LIST*
%ADD10C,0.125000*%
%ADD11C,0.250000*%
%ADD12C,0.120000*%
G04 APERTURE END LIST*
D10*
G36*
X144507847Y-87486120D02*
G01*
X144275205Y-87486120D01*
X144302072Y-87357159D01*
X144387807Y-87351252D01*
X144458674Y-87334786D01*
X144517236Y-87309085D01*
X144565552Y-87274655D01*
X144605042Y-87231149D01*
X144636379Y-87177397D01*
X144763691Y-87177397D01*
X144557306Y-88170000D01*
X144365697Y-88170000D01*
X144507847Y-87486120D01*
G37*
G36*
X145757821Y-88170000D02*
G01*
X145547039Y-88170000D01*
X145523592Y-87966789D01*
X145150022Y-87966789D01*
X145040724Y-88170000D01*
X144831346Y-88170000D01*
X145041870Y-87790935D01*
X145244117Y-87790935D01*
X145504113Y-87790935D01*
X145457158Y-87391231D01*
X145244117Y-87790935D01*
X145041870Y-87790935D01*
X145397807Y-87150041D01*
X145625013Y-87150041D01*
X145757821Y-88170000D01*
G37*
D11*
G36*
X142095056Y-87330781D02*
G01*
X142135138Y-87343801D01*
X142164101Y-87363510D01*
X142185249Y-87391144D01*
X142198913Y-87428583D01*
X142203974Y-87478975D01*
X142198985Y-87527326D01*
X142185377Y-87564021D01*
X142164061Y-87591826D01*
X142134372Y-87612341D01*
X142094193Y-87625735D01*
X142040270Y-87630711D01*
X141844448Y-87630711D01*
X141844448Y-87325896D01*
X142040270Y-87325896D01*
X142095056Y-87330781D01*
G37*
G36*
X143042618Y-87332477D02*
G01*
X143092669Y-87350971D01*
X143133713Y-87380826D01*
X143167220Y-87423274D01*
X143193335Y-87481149D01*
X143210857Y-87558580D01*
X143217398Y-87660692D01*
X143210869Y-87762312D01*
X143193374Y-87839398D01*
X143167290Y-87897043D01*
X143133803Y-87939348D01*
X143092760Y-87969123D01*
X143042680Y-87987576D01*
X142980971Y-87994145D01*
X142792110Y-87994145D01*
X142792110Y-87325896D01*
X142980971Y-87325896D01*
X143042618Y-87332477D01*
G37*
G36*
X143888220Y-88326263D02*
G01*
X140476924Y-88326263D01*
X140476924Y-87840577D01*
X140601924Y-87840577D01*
X140608665Y-87920217D01*
X140627814Y-87988100D01*
X140658278Y-88048030D01*
X140694248Y-88092208D01*
X140738087Y-88127564D01*
X140790113Y-88156505D01*
X140845543Y-88178097D01*
X140897824Y-88191432D01*
X140950838Y-88198777D01*
X141006207Y-88201263D01*
X141061629Y-88198776D01*
X141114651Y-88191432D01*
X141166932Y-88178097D01*
X141222362Y-88156505D01*
X141274377Y-88127560D01*
X141318166Y-88092208D01*
X141354184Y-88048025D01*
X141384661Y-87988100D01*
X141403810Y-87920217D01*
X141410551Y-87840577D01*
X141410551Y-87630711D01*
X141634583Y-87630711D01*
X141634583Y-88170000D01*
X141844448Y-88170000D01*
X141844448Y-87994145D01*
X142582245Y-87994145D01*
X142582245Y-88170000D01*
X142980971Y-88170000D01*
X143553354Y-88170000D01*
X143763220Y-88170000D01*
X143763220Y-87150041D01*
X143553354Y-87150041D01*
X143553354Y-88170000D01*
X142980971Y-88170000D01*
X143072327Y-88164318D01*
X143147782Y-88148524D01*
X143209974Y-88124028D01*
X143261090Y-88091547D01*
X143302761Y-88051053D01*
X143345922Y-87991581D01*
X143380234Y-87923971D01*
X143405648Y-87847064D01*
X143421647Y-87759414D01*
X143427264Y-87659349D01*
X143421702Y-87560686D01*
X143405805Y-87473606D01*
X143380455Y-87396569D01*
X143346105Y-87328250D01*
X143302761Y-87267583D01*
X143265488Y-87230254D01*
X143223023Y-87200549D01*
X143174717Y-87178068D01*
X143123130Y-87163305D01*
X143059310Y-87153582D01*
X142980971Y-87150041D01*
X142582245Y-87150041D01*
X142582245Y-87994145D01*
X141844448Y-87994145D01*
X141844448Y-87806566D01*
X142106032Y-87806566D01*
X142174599Y-87800401D01*
X142233644Y-87782772D01*
X142284981Y-87754208D01*
X142329881Y-87714181D01*
X142365551Y-87665863D01*
X142391644Y-87609554D01*
X142408044Y-87543736D01*
X142413839Y-87466458D01*
X142407852Y-87389689D01*
X142391137Y-87326463D01*
X142364864Y-87274282D01*
X142329209Y-87231252D01*
X142284822Y-87197279D01*
X142230765Y-87172018D01*
X142165038Y-87155849D01*
X142085088Y-87150041D01*
X141634583Y-87150041D01*
X141634583Y-87630711D01*
X141410551Y-87630711D01*
X141410551Y-87150041D01*
X141200685Y-87150041D01*
X141200685Y-87843019D01*
X141194725Y-87901289D01*
X141178482Y-87945450D01*
X141153084Y-87978845D01*
X141117786Y-88003433D01*
X141070106Y-88019459D01*
X141006207Y-88025408D01*
X140942331Y-88019460D01*
X140894669Y-88003436D01*
X140859380Y-87978850D01*
X140833989Y-87945455D01*
X140817749Y-87901293D01*
X140811789Y-87843019D01*
X140811789Y-87150041D01*
X140601924Y-87150041D01*
X140601924Y-87840577D01*
X140476924Y-87840577D01*
X140476924Y-87025041D01*
X143888220Y-87025041D01*
X143888220Y-88326263D01*
G37*
%TO.C,R5*%
D12*
X141056359Y-80090000D02*
X141363641Y-80090000D01*
X141056359Y-80850000D02*
X141363641Y-80850000D01*
%TO.C,C1*%
X140372164Y-86020000D02*
X140587836Y-86020000D01*
X140372164Y-86740000D02*
X140587836Y-86740000D01*
%TO.C,C2*%
X135772164Y-79740000D02*
X135987836Y-79740000D01*
X135772164Y-80460000D02*
X135987836Y-80460000D01*
%TO.C,R1*%
X135006359Y-81060000D02*
X135313641Y-81060000D01*
X135006359Y-81820000D02*
X135313641Y-81820000D01*
%TO.C,D1*%
X138517500Y-86120000D02*
X134507500Y-86120000D01*
X138517500Y-88120000D02*
X134507500Y-88120000D01*
X138517500Y-88120000D02*
X138517500Y-86120000D01*
%TO.C,U2*%
X141372500Y-81160000D02*
X142842500Y-81160000D01*
X141372500Y-81185000D02*
X141372500Y-81160000D01*
X141372500Y-83380000D02*
X141372500Y-83355000D01*
X142842500Y-81160000D02*
X142842500Y-81185000D01*
X142842500Y-83355000D02*
X142842500Y-83380000D01*
X142842500Y-83380000D02*
X141372500Y-83380000D01*
X140927500Y-81180000D02*
X140787500Y-80990000D01*
X141067500Y-80990000D01*
X140927500Y-81180000D01*
G36*
X140927500Y-81180000D02*
G01*
X140787500Y-80990000D01*
X141067500Y-80990000D01*
X140927500Y-81180000D01*
G37*
%TO.C,J1*%
X124370000Y-78010000D02*
X124370000Y-87410000D01*
X126270000Y-78010000D02*
X124370000Y-78010000D01*
X126270000Y-87410000D02*
X124370000Y-87410000D01*
X130170000Y-78010000D02*
X128170000Y-78010000D01*
X130170000Y-87410000D02*
X128170000Y-87410000D01*
%TO.C,D2*%
X139945000Y-77885000D02*
X139945000Y-79355000D01*
X139945000Y-79355000D02*
X142230000Y-79355000D01*
X142230000Y-77885000D02*
X139945000Y-77885000D01*
%TO.C,U1*%
X136940000Y-81090000D02*
X137115000Y-81090000D01*
X136940000Y-84310000D02*
X136940000Y-81090000D01*
X137115000Y-84310000D02*
X136940000Y-84310000D01*
X139985000Y-81090000D02*
X140160000Y-81090000D01*
X140160000Y-81090000D02*
X140160000Y-84310000D01*
X140160000Y-84310000D02*
X139985000Y-84310000D01*
X137110000Y-84860000D02*
X136780000Y-85100000D01*
X136780000Y-84620000D01*
X137110000Y-84860000D01*
G36*
X137110000Y-84860000D02*
G01*
X136780000Y-85100000D01*
X136780000Y-84620000D01*
X137110000Y-84860000D01*
G37*
%TO.C,R4*%
X142603641Y-83810000D02*
X142296359Y-83810000D01*
X142603641Y-84570000D02*
X142296359Y-84570000D01*
%TO.C,R3*%
X138513641Y-78530000D02*
X138206359Y-78530000D01*
X138513641Y-79290000D02*
X138206359Y-79290000D01*
%TO.C,R2*%
X134946359Y-84140000D02*
X135253641Y-84140000D01*
X134946359Y-84900000D02*
X135253641Y-84900000D01*
%TD*%
M02*
