%TF.GenerationSoftware,KiCad,Pcbnew,10.0.4*%
%TF.CreationDate,2026-09-12T19:24:59+12:00*%
%TF.ProjectId,MicroDev,4d696372-6f44-4657-962e-6b696361645f,rev?*%
%TF.SameCoordinates,Original*%
%TF.FileFunction,Legend,Top*%
%TF.FilePolarity,Positive*%
%FSLAX46Y46*%
G04 Gerber Fmt 4.6, Leading zero omitted, Abs format (unit mm)*
G04 Created by KiCad (PCBNEW 10.0.4) date 2026-09-12 19:24:59*
%MOMM*%
%LPD*%
G01*
G04 APERTURE LIST*
%ADD10C,0.125000*%
%ADD11C,0.250000*%
%ADD12C,0.120000*%
%ADD13C,0.100000*%
G04 APERTURE END LIST*
D10*
G36*
X142664930Y-87578061D02*
G01*
X142695738Y-87593101D01*
X142718061Y-87617311D01*
X142731885Y-87648469D01*
X142738512Y-87689801D01*
X142736074Y-87744501D01*
X142441884Y-87744501D01*
X142469967Y-87676232D01*
X142502042Y-87628627D01*
X142537624Y-87597136D01*
X142577304Y-87578790D01*
X142622684Y-87572554D01*
X142664930Y-87578061D01*
G37*
G36*
X141876882Y-87349480D02*
G01*
X141910167Y-87358657D01*
X141932027Y-87371786D01*
X141945755Y-87391457D01*
X141951618Y-87423904D01*
X141945949Y-87475956D01*
X141930024Y-87529047D01*
X141910115Y-87563784D01*
X141887025Y-87585071D01*
X141857948Y-87599065D01*
X141820523Y-87608254D01*
X141772658Y-87611632D01*
X141524996Y-87611632D01*
X141580256Y-87345896D01*
X141827918Y-87345896D01*
X141876882Y-87349480D01*
G37*
G36*
X145109870Y-87810935D02*
G01*
X144849874Y-87810935D01*
X145062915Y-87411231D01*
X145109870Y-87810935D01*
G37*
G36*
X145474689Y-88332374D02*
G01*
X141088370Y-88332374D01*
X141088370Y-88190000D01*
X141199481Y-88190000D01*
X141404767Y-88190000D01*
X141488421Y-87787487D01*
X141723810Y-87787487D01*
X141767662Y-87791423D01*
X141796601Y-87801469D01*
X141814973Y-87816064D01*
X141826161Y-87836535D01*
X141830560Y-87866097D01*
X141825842Y-87908632D01*
X141815767Y-87950458D01*
X141800868Y-88015915D01*
X141788859Y-88082436D01*
X141785237Y-88120390D01*
X141787471Y-88153934D01*
X141796106Y-88190000D01*
X142016413Y-88190000D01*
X142024228Y-88152386D01*
X142004658Y-88132828D01*
X141995555Y-88106156D01*
X141997789Y-88068855D01*
X142021725Y-87940383D01*
X142023616Y-87924911D01*
X142216702Y-87924911D01*
X142219142Y-88001419D01*
X142234123Y-88064640D01*
X142260350Y-88117276D01*
X142290374Y-88153722D01*
X142326803Y-88182167D01*
X142370570Y-88203158D01*
X142423152Y-88216498D01*
X142486458Y-88221263D01*
X142567653Y-88213930D01*
X142644310Y-88192144D01*
X142717695Y-88155500D01*
X142783336Y-88106375D01*
X142836757Y-88047843D01*
X142878956Y-87978974D01*
X142690095Y-87978974D01*
X142657939Y-88020612D01*
X142620364Y-88049316D01*
X142576391Y-88066697D01*
X142524132Y-88072763D01*
X142480544Y-88068323D01*
X142450127Y-88056643D01*
X142427182Y-88036945D01*
X142413246Y-88010298D01*
X142406285Y-87979780D01*
X142404209Y-87948565D01*
X142412330Y-87873461D01*
X142907655Y-87873461D01*
X142915959Y-87840183D01*
X142929565Y-87746506D01*
X142929515Y-87669701D01*
X142917549Y-87599685D01*
X142897580Y-87550022D01*
X142868078Y-87508661D01*
X142830963Y-87475589D01*
X142788698Y-87450549D01*
X142748442Y-87435778D01*
X143058108Y-87435778D01*
X143159897Y-88190000D01*
X143361153Y-88190000D01*
X143734043Y-87506120D01*
X143880963Y-87506120D01*
X144113604Y-87506120D01*
X143971454Y-88190000D01*
X144163063Y-88190000D01*
X144437103Y-88190000D01*
X144646481Y-88190000D01*
X144755779Y-87986789D01*
X145129349Y-87986789D01*
X145152796Y-88190000D01*
X145363578Y-88190000D01*
X145230771Y-87170041D01*
X145003564Y-87170041D01*
X144647627Y-87810935D01*
X144437103Y-88190000D01*
X144163063Y-88190000D01*
X144369448Y-87197397D01*
X144242137Y-87197397D01*
X144210799Y-87251149D01*
X144171309Y-87294655D01*
X144122993Y-87329085D01*
X144064431Y-87354786D01*
X143993564Y-87371252D01*
X143907829Y-87377159D01*
X143880963Y-87506120D01*
X143734043Y-87506120D01*
X143772397Y-87435778D01*
X143569919Y-87435778D01*
X143306076Y-87987461D01*
X143260647Y-87435778D01*
X143058108Y-87435778D01*
X142748442Y-87435778D01*
X142746943Y-87435228D01*
X142703309Y-87426901D01*
X142656268Y-87424054D01*
X142578943Y-87431018D01*
X142508535Y-87451402D01*
X142443598Y-87485188D01*
X142383082Y-87533353D01*
X142332137Y-87590889D01*
X142289435Y-87658806D01*
X142254995Y-87738532D01*
X142253354Y-87744501D01*
X142229331Y-87831878D01*
X142216702Y-87924911D01*
X142023616Y-87924911D01*
X142032472Y-87852456D01*
X142032960Y-87791029D01*
X142027881Y-87774183D01*
X142016168Y-87753293D01*
X142000990Y-87734701D01*
X141986188Y-87723312D01*
X141936484Y-87698827D01*
X142005337Y-87666208D01*
X142060324Y-87625253D01*
X142103431Y-87575803D01*
X142135728Y-87516840D01*
X142157280Y-87446585D01*
X142164006Y-87399181D01*
X142164118Y-87354628D01*
X142157112Y-87310969D01*
X142141953Y-87266945D01*
X142126321Y-87240437D01*
X142103735Y-87217115D01*
X142073016Y-87196725D01*
X142038771Y-87182501D01*
X141997130Y-87173340D01*
X141946559Y-87170041D01*
X141411545Y-87170041D01*
X141319732Y-87611632D01*
X141199481Y-88190000D01*
X141088370Y-88190000D01*
X141088370Y-87058930D01*
X145474689Y-87058930D01*
X145474689Y-88332374D01*
G37*
D11*
G36*
X143495056Y-77650781D02*
G01*
X143535138Y-77663801D01*
X143564101Y-77683510D01*
X143585249Y-77711144D01*
X143598913Y-77748583D01*
X143603974Y-77798975D01*
X143598985Y-77847326D01*
X143585377Y-77884021D01*
X143564061Y-77911826D01*
X143534372Y-77932341D01*
X143494193Y-77945735D01*
X143440270Y-77950711D01*
X143244448Y-77950711D01*
X143244448Y-77645896D01*
X143440270Y-77645896D01*
X143495056Y-77650781D01*
G37*
G36*
X144442618Y-77652477D02*
G01*
X144492669Y-77670971D01*
X144533713Y-77700826D01*
X144567220Y-77743274D01*
X144593335Y-77801149D01*
X144610857Y-77878580D01*
X144617398Y-77980692D01*
X144610869Y-78082312D01*
X144593374Y-78159398D01*
X144567290Y-78217043D01*
X144533803Y-78259348D01*
X144492760Y-78289123D01*
X144442680Y-78307576D01*
X144380971Y-78314145D01*
X144192110Y-78314145D01*
X144192110Y-77645896D01*
X144380971Y-77645896D01*
X144442618Y-77652477D01*
G37*
G36*
X145288220Y-78646263D02*
G01*
X141876924Y-78646263D01*
X141876924Y-78160577D01*
X142001924Y-78160577D01*
X142008665Y-78240217D01*
X142027814Y-78308100D01*
X142058278Y-78368030D01*
X142094248Y-78412208D01*
X142138087Y-78447564D01*
X142190113Y-78476505D01*
X142245543Y-78498097D01*
X142297824Y-78511432D01*
X142350838Y-78518777D01*
X142406207Y-78521263D01*
X142461629Y-78518776D01*
X142514651Y-78511432D01*
X142566932Y-78498097D01*
X142622362Y-78476505D01*
X142674377Y-78447560D01*
X142718166Y-78412208D01*
X142754184Y-78368025D01*
X142784661Y-78308100D01*
X142803810Y-78240217D01*
X142810551Y-78160577D01*
X142810551Y-77950711D01*
X143034583Y-77950711D01*
X143034583Y-78490000D01*
X143244448Y-78490000D01*
X143244448Y-78314145D01*
X143982245Y-78314145D01*
X143982245Y-78490000D01*
X144380971Y-78490000D01*
X144953354Y-78490000D01*
X145163220Y-78490000D01*
X145163220Y-77470041D01*
X144953354Y-77470041D01*
X144953354Y-78490000D01*
X144380971Y-78490000D01*
X144472327Y-78484318D01*
X144547782Y-78468524D01*
X144609974Y-78444028D01*
X144661090Y-78411547D01*
X144702761Y-78371053D01*
X144745922Y-78311581D01*
X144780234Y-78243971D01*
X144805648Y-78167064D01*
X144821647Y-78079414D01*
X144827264Y-77979349D01*
X144821702Y-77880686D01*
X144805805Y-77793606D01*
X144780455Y-77716569D01*
X144746105Y-77648250D01*
X144702761Y-77587583D01*
X144665488Y-77550254D01*
X144623023Y-77520549D01*
X144574717Y-77498068D01*
X144523130Y-77483305D01*
X144459310Y-77473582D01*
X144380971Y-77470041D01*
X143982245Y-77470041D01*
X143982245Y-78314145D01*
X143244448Y-78314145D01*
X143244448Y-78126566D01*
X143506032Y-78126566D01*
X143574599Y-78120401D01*
X143633644Y-78102772D01*
X143684981Y-78074208D01*
X143729881Y-78034181D01*
X143765551Y-77985863D01*
X143791644Y-77929554D01*
X143808044Y-77863736D01*
X143813839Y-77786458D01*
X143807852Y-77709689D01*
X143791137Y-77646463D01*
X143764864Y-77594282D01*
X143729209Y-77551252D01*
X143684822Y-77517279D01*
X143630765Y-77492018D01*
X143565038Y-77475849D01*
X143485088Y-77470041D01*
X143034583Y-77470041D01*
X143034583Y-77950711D01*
X142810551Y-77950711D01*
X142810551Y-77470041D01*
X142600685Y-77470041D01*
X142600685Y-78163019D01*
X142594725Y-78221289D01*
X142578482Y-78265450D01*
X142553084Y-78298845D01*
X142517786Y-78323433D01*
X142470106Y-78339459D01*
X142406207Y-78345408D01*
X142342331Y-78339460D01*
X142294669Y-78323436D01*
X142259380Y-78298850D01*
X142233989Y-78265455D01*
X142217749Y-78221293D01*
X142211789Y-78163019D01*
X142211789Y-77470041D01*
X142001924Y-77470041D01*
X142001924Y-78160577D01*
X141876924Y-78160577D01*
X141876924Y-77345041D01*
X145288220Y-77345041D01*
X145288220Y-78646263D01*
G37*
%TO.C,U2*%
D12*
X141372500Y-81160000D02*
X142842500Y-81160000D01*
X141372500Y-81185000D02*
X141372500Y-81160000D01*
X141372500Y-83380000D02*
X141372500Y-83355000D01*
X142842500Y-81160000D02*
X142842500Y-81185000D01*
X142842500Y-83355000D02*
X142842500Y-83380000D01*
X142842500Y-83380000D02*
X141372500Y-83380000D01*
X140927500Y-81180000D02*
X140787500Y-80990000D01*
X141067500Y-80990000D01*
X140927500Y-81180000D01*
G36*
X140927500Y-81180000D02*
G01*
X140787500Y-80990000D01*
X141067500Y-80990000D01*
X140927500Y-81180000D01*
G37*
%TO.C,U1*%
X136940000Y-84310000D02*
X136940000Y-81090000D01*
X137115000Y-84310000D02*
X136940000Y-84310000D01*
X140160000Y-84310000D02*
X139985000Y-84310000D01*
X136940000Y-81090000D02*
X137115000Y-81090000D01*
X139985000Y-81090000D02*
X140160000Y-81090000D01*
X140160000Y-81090000D02*
X140160000Y-84310000D01*
X137110000Y-84860000D02*
X136780000Y-85100000D01*
X136780000Y-84620000D01*
X137110000Y-84860000D01*
G36*
X137110000Y-84860000D02*
G01*
X136780000Y-85100000D01*
X136780000Y-84620000D01*
X137110000Y-84860000D01*
G37*
%TO.C,R5*%
X138343641Y-87550000D02*
X138036359Y-87550000D01*
X138343641Y-86790000D02*
X138036359Y-86790000D01*
%TO.C,R4*%
X142603641Y-84570000D02*
X142296359Y-84570000D01*
X142603641Y-83810000D02*
X142296359Y-83810000D01*
%TO.C,R3*%
X138513641Y-79290000D02*
X138206359Y-79290000D01*
X138513641Y-78530000D02*
X138206359Y-78530000D01*
%TO.C,R2*%
X134946359Y-84140000D02*
X135253641Y-84140000D01*
X134946359Y-84900000D02*
X135253641Y-84900000D01*
%TO.C,R1*%
X135006359Y-81060000D02*
X135313641Y-81060000D01*
X135006359Y-81820000D02*
X135313641Y-81820000D01*
%TO.C,J1*%
X130170000Y-78010000D02*
X128170000Y-78010000D01*
X126270000Y-78010000D02*
X124370000Y-78010000D01*
X124370000Y-78010000D02*
X124370000Y-87410000D01*
X130170000Y-87410000D02*
X128170000Y-87410000D01*
X126270000Y-87410000D02*
X124370000Y-87410000D01*
%TO.C,D2*%
X134017500Y-86425000D02*
X134017500Y-87895000D01*
X134017500Y-87895000D02*
X136302500Y-87895000D01*
X136302500Y-86425000D02*
X134017500Y-86425000D01*
%TO.C,C2*%
X135772164Y-79740000D02*
X135987836Y-79740000D01*
X135772164Y-80460000D02*
X135987836Y-80460000D01*
%TO.C,C1*%
X140372164Y-86020000D02*
X140587836Y-86020000D01*
X140372164Y-86740000D02*
X140587836Y-86740000D01*
%TO.C,D1*%
D13*
X135930000Y-85730000D02*
G75*
G02*
X135830000Y-85730000I-50000J0D01*
G01*
X135830000Y-85730000D02*
G75*
G02*
X135930000Y-85730000I50000J0D01*
G01*
%TD*%
M02*
