%TF.GenerationSoftware,KiCad,Pcbnew,10.0.4*%
%TF.CreationDate,2026-09-17T19:11:30+12:00*%
%TF.ProjectId,MicroDev,4d696372-6f44-4657-962e-6b696361645f,rev?*%
%TF.SameCoordinates,Original*%
%TF.FileFunction,Paste,Top*%
%TF.FilePolarity,Positive*%
%FSLAX46Y46*%
G04 Gerber Fmt 4.6, Leading zero omitted, Abs format (unit mm)*
G04 Created by KiCad (PCBNEW 10.0.4) date 2026-09-17 19:11:30*
%MOMM*%
%LPD*%
G01*
G04 APERTURE LIST*
G04 Aperture macros list*
%AMRoundRect*
0 Rectangle with rounded corners*
0 $1 Rounding radius*
0 $2 $3 $4 $5 $6 $7 $8 $9 X,Y pos of 4 corners*
0 Add a 4 corners polygon primitive as box body*
4,1,4,$2,$3,$4,$5,$6,$7,$8,$9,$2,$3,0*
0 Add four circle primitives for the rounded corners*
1,1,$1+$1,$2,$3*
1,1,$1+$1,$4,$5*
1,1,$1+$1,$6,$7*
1,1,$1+$1,$8,$9*
0 Add four rect primitives between the rounded corners*
20,1,$1+$1,$2,$3,$4,$5,0*
20,1,$1+$1,$4,$5,$6,$7,0*
20,1,$1+$1,$6,$7,$8,$9,0*
20,1,$1+$1,$8,$9,$2,$3,0*%
G04 Aperture macros list end*
%ADD10RoundRect,0.135000X-0.135000X-0.185000X0.135000X-0.185000X0.135000X0.185000X-0.135000X0.185000X0*%
%ADD11RoundRect,0.140000X-0.140000X-0.170000X0.140000X-0.170000X0.140000X0.170000X-0.140000X0.170000X0*%
%ADD12RoundRect,0.225000X0.225000X0.375000X-0.225000X0.375000X-0.225000X-0.375000X0.225000X-0.375000X0*%
%ADD13RoundRect,0.087500X-0.425000X-0.087500X0.425000X-0.087500X0.425000X0.087500X-0.425000X0.087500X0*%
%ADD14RoundRect,0.150000X-0.575000X0.150000X-0.575000X-0.150000X0.575000X-0.150000X0.575000X0.150000X0*%
%ADD15RoundRect,0.075000X-0.650000X0.075000X-0.650000X-0.075000X0.650000X-0.075000X0.650000X0.075000X0*%
%ADD16RoundRect,0.218750X-0.218750X-0.256250X0.218750X-0.256250X0.218750X0.256250X-0.218750X0.256250X0*%
%ADD17RoundRect,0.087500X0.087500X-0.662500X0.087500X0.662500X-0.087500X0.662500X-0.087500X-0.662500X0*%
%ADD18RoundRect,0.135000X0.135000X0.185000X-0.135000X0.185000X-0.135000X-0.185000X0.135000X-0.185000X0*%
G04 APERTURE END LIST*
D10*
%TO.C,R5*%
X140700000Y-80470000D03*
X141720000Y-80470000D03*
%TD*%
D11*
%TO.C,C1*%
X140000000Y-86380000D03*
X140960000Y-86380000D03*
%TD*%
%TO.C,C2*%
X135400000Y-80100000D03*
X136360000Y-80100000D03*
%TD*%
D10*
%TO.C,R1*%
X134650000Y-81440000D03*
X135670000Y-81440000D03*
%TD*%
D12*
%TO.C,D1*%
X137807500Y-87120000D03*
X134507500Y-87120000D03*
%TD*%
D13*
%TO.C,U2*%
X141270000Y-81620000D03*
X141270000Y-82270000D03*
X141270000Y-82920000D03*
X142945000Y-82920000D03*
X142945000Y-82270000D03*
X142945000Y-81620000D03*
%TD*%
D14*
%TO.C,J1*%
X132315000Y-79460000D03*
X132315000Y-80260000D03*
D15*
X132315000Y-81460000D03*
X132315000Y-82460000D03*
X132315000Y-82960000D03*
X132315000Y-83960000D03*
D14*
X132315000Y-85160000D03*
X132315000Y-85960000D03*
X132315000Y-85960000D03*
X132315000Y-85160000D03*
D15*
X132315000Y-84460000D03*
X132315000Y-83460000D03*
X132315000Y-81960000D03*
X132315000Y-80960000D03*
D14*
X132315000Y-80260000D03*
X132315000Y-79460000D03*
%TD*%
D16*
%TO.C,D2*%
X140642500Y-78620000D03*
X142217500Y-78620000D03*
%TD*%
D17*
%TO.C,U1*%
X137550000Y-84800000D03*
X138050000Y-84800000D03*
X138550000Y-84800000D03*
X139050000Y-84800000D03*
X139550000Y-84800000D03*
X139550000Y-80600000D03*
X139050000Y-80600000D03*
X138550000Y-80600000D03*
X138050000Y-80600000D03*
X137550000Y-80600000D03*
%TD*%
D18*
%TO.C,R4*%
X142960000Y-84190000D03*
X141940000Y-84190000D03*
%TD*%
%TO.C,R3*%
X138870000Y-78910000D03*
X137850000Y-78910000D03*
%TD*%
D10*
%TO.C,R2*%
X134590000Y-84520000D03*
X135610000Y-84520000D03*
%TD*%
M02*
